<?xml version="1.0" standalone="no"?><!DOCTYPE svg PUBLIC "-//W3C//DTD SVG 1.1//EN" "http://www.w3.org/Graphics/SVG/1.1/DTD/svg11.dtd" ><svg xmlns="http://www.w3.org/2000/svg"><metadata></metadata><defs><font id="fonteditor" horiz-adv-x="1000"><font-face font-family=" [W]åb?zåwÿ^UFu(ÿ	^8ÄOS" font-weight="400" font-stretch="normal" units-per-em="1000" panose-1="0 0 0 0 0 0 0 0 0 0" ascent="880" descent="-120" x-height="0" bbox="57 -140 942 747" underline-thickness="0" underline-position="0" unicode-range="U+2f00-9f50" /><missing-glyph horiz-adv-x="1000" d="M850 30 L150 30 L150 730 L850 730 L850 30 ZM190 660 L190 100 L470 380 L190 660 ZM220 70 L780 70 L500 350 L220 70 ZM500 410 L780 690 L220 690 L500 410 ZM810 100 L810 660 L530 380 L810 100 Z" /><glyph glyph-name="cid959" unicode="&#x6309;" d="M810 228 Q787 185 756 143.5 Q725 102 683 63 L861 -30 L836 -79 L638 25 Q591 -10 534.5 -40 Q478 -70 408 -96 L389 -44 Q506 -2 584 54 L479 110 L457 121 L466 144 L528 293 L371 293 L371 348 L551 348 L588 437 L639 416 L610 348 L913 348 L913 293 L587 293 L526 146 L631 90 Q676 128 707.5 169.5 Q739 211 761 253 L810 228 ZM87 208 L194 208 L194 456 L87 456 L87 511 L194 511 L194 678 L249 678 L249 511 L352 511 L352 456 L249 456 L249 208 L352 208 L352 153 L249 153 L249 -87 L119 -87 L119 -32 L194 -32 L194 153 L87 153 L87 208 ZM395 422 L395 554 L890 554 L890 422 L835 422 L835 499 L450 499 L450 422 L395 422 ZM631 580 L580 651 L625 683 L676 612 L631 580 Z" /><glyph glyph-name="cid963" unicode="&#x6848;" d="M741 355 Q685 316 605 285 L795 240 L783 186 L508 251 Q502 249 494 247 Q423 227 341 211.5 Q259 196 165 187 L160 242 Q290 254 396 278 L302 300 L261 310 L339 412 L115 412 L115 467 L381 467 L433 534 L477 500 L451 467 L887 467 L887 412 L408 412 L356 344 L508 308 Q571 328 621.5 351.5 Q672 375 710 400 L741 355 ZM120 146 L471 146 L471 184 L526 184 L526 146 L877 146 L877 91 L526 91 L526 -102 L471 -102 L471 91 L120 91 L120 146 ZM151 504 L151 608 L850 608 L850 504 L795 504 L795 553 L206 553 L206 504 L151 504 ZM868 -90 Q833 -79 800 -66.5 Q767 -54 737 -40 Q707 -26 680 -10.5 Q653 5 628 22 L659 67 Q703 36 760 10 Q820 -18 884 -38 L868 -90 ZM113 -38 Q177 -18 237 10 Q294 36 338 67 L369 22 Q344 5 317 -10.5 Q290 -26 260 -40 Q230 -54 197 -66.5 Q164 -79 129 -90 L113 -38 ZM507 625 L447 676 L483 718 L543 666 L507 625 Z" /><glyph glyph-name="cid988" unicode="&#x628a;" d="M527 286 L769 286 L769 579 L478 579 L478 36 Q478 -2 499 -25 Q510 -36 525 -42 Q540 -48 555 -48 L848 -48 L848 74 L903 74 L903 -103 L555 -103 Q529 -103 504 -92.5 Q479 -82 459 -62 Q442 -45 432.5 -20.5 Q423 4 423 36 L423 634 L824 634 L824 231 L527 231 L527 286 ZM96 209 L209 209 L209 457 L96 457 L96 512 L209 512 L209 678 L264 678 L264 512 L373 512 L373 457 L264 457 L264 209 L373 209 L373 154 L264 154 L264 -86 L148 -86 L148 -32 L209 -32 L209 154 L96 154 L96 209 ZM596 322 L596 542 L651 542 L651 322 L596 322 Z" /><glyph glyph-name="cid999" unicode="&#x8d25;" d="M584 397 Q598 361 616.5 322.5 Q635 284 657 244 Q683 299 705.5 358 Q728 417 745 480 L596 480 L596 534 L884 534 L884 480 L801 480 Q781 400 752.5 327.5 Q724 255 690 189 L702 170 Q740 110 780.5 57.5 Q821 5 856 -32 L817 -70 Q780 -32 739.5 21 Q699 74 660 134 Q623 72 583 19.5 Q543 -33 502 -76 L463 -38 Q505 7 547 63.5 Q589 120 627 187 Q598 235 574 283.5 Q550 332 533 377 L584 397 ZM151 242 L151 579 L441 579 L441 242 L386 242 L386 524 L206 524 L206 242 L151 242 ZM115 19 Q163 57 193 93 Q223 129 240 176 Q257 224 264 288.5 Q271 353 271 445 L326 445 Q326 348 318.5 279.5 Q311 211 291 158 Q271 103 237 60.5 Q203 18 149 -24 L115 19 ZM612 655 Q596 584 566 512 Q552 480 535.5 450.5 Q519 421 501 397 L458 431 Q490 472 515 533 Q529 567 540.5 601 Q552 635 559 666 L612 655 ZM425 13 L319 123 L358 161 L465 51 L425 13 Z" /><glyph glyph-name="cid1002" unicode="&#x6591;" d="M638 17 L741 17 L741 272 L673 272 L673 327 L741 327 L741 582 L660 582 L660 637 L877 637 L877 582 L796 582 L796 327 L864 327 L864 272 L796 272 L796 17 L899 17 L899 -38 L638 -38 L638 17 ZM100 46 L203 46 L203 272 L135 272 L135 327 L203 327 L203 553 L123 553 L123 608 L339 608 L339 553 L258 553 L258 327 L327 327 L327 272 L258 272 L258 46 L361 46 L361 -9 L100 -9 L100 46 ZM440 398 L503 259 Q532 346 550 427 L604 416 Q592 360 574.5 302.5 Q557 245 536 188 L624 -5 L574 -28 L508 117 Q483 57 456.5 6.5 Q430 -44 405 -84 L359 -54 Q387 -10 416.5 49.5 Q446 109 473 177 L476 186 L390 376 L440 398 ZM351 521 L651 521 L651 466 L351 466 L351 521 ZM493 558 L448 643 L497 668 L541 583 L493 558 Z" /><glyph glyph-name="cid1006" unicode="&#x822c;" d="M105 283 L193 283 Q194 297 194 313 Q194 329 194 346 L194 565 L455 565 L455 -59 L322 -59 L322 -4 L400 -4 L400 229 L244 229 Q242 185 237 150.5 Q232 116 224 87 Q211 39 193 4 Q175 -31 152 -67 L106 -37 Q127 -5 143.5 27 Q160 59 171 101 Q184 150 190 229 L105 229 L105 283 ZM592 164 L695 99 Q722 125 745 153 Q768 181 785 210 L542 210 L542 265 L841 265 L841 197 L837 191 Q802 128 742 69 L894 -27 L864 -74 L699 30 Q662 -2 620 -31 Q578 -60 533 -85 L507 -37 Q545 -15 582 9.5 Q619 34 651 60 L562 117 L592 164 ZM480 317 Q506 341 521.5 363.5 Q537 386 545 412 Q553 439 555.5 474 Q558 509 558 560 L558 588 L802 588 L802 394 Q802 380 811 371 Q820 362 834 362 L881 362 L881 307 L834 307 Q816 307 800 314 Q784 321 772 332 Q761 344 754 360 Q747 376 747 394 L747 533 L613 533 Q612 489 608.5 456.5 Q605 424 597 395 Q586 362 567.5 334.5 Q549 307 518 277 L480 317 ZM400 511 L248 511 L248 346 Q248 329 248 313 Q248 297 247 283 L400 283 L400 511 ZM270 626 L326 688 L366 651 L310 589 L270 626 ZM326 348 L278 403 L319 439 L367 384 L326 348 ZM326 73 L278 128 L319 164 L367 109 L326 73 Z" /><glyph glyph-name="cid1018" unicode="&#x5e2e;" d="M113 411 L266 411 Q269 418 271.5 425 Q274 432 276 440 L285 473 L165 473 L165 528 L295 528 Q299 558 301 590 L155 590 L155 645 L303 645 Q304 658 304 671.5 Q304 685 304 699 L359 698 Q359 684 359 671 Q359 658 358 645 L508 645 L508 590 L356 590 Q354 558 350 528 L498 528 L498 473 L341 473 Q339 460 335.5 448 Q332 436 328 424 L324 411 L551 411 L551 356 L300 356 Q277 309 240 266.5 Q203 224 146 184 L114 229 Q156 259 186.5 290.5 Q217 322 238 356 L113 356 L113 411 ZM538 293 L538 184 L813 184 L813 -26 L675 -26 L675 29 L758 29 L758 129 L538 129 L538 -117 L483 -117 L483 129 L262 129 L262 -23 L207 -23 L207 184 L483 184 L483 293 L538 293 ZM588 220 L588 666 L886 666 L886 618 L883 612 Q865 571 829 532 Q821 523 812 514.5 Q803 506 793 498 L886 498 L886 289 L731 289 L731 343 L831 343 L831 443 L695 443 L695 494 L708 502 Q733 519 753 535.5 Q773 552 789 569 Q807 588 821 612 L643 612 L643 220 L588 220 Z" /><glyph glyph-name="cid1036" unicode="&#x4fdd;" d="M357 298 L593 298 L593 407 L448 407 L448 654 L792 654 L792 407 L648 407 L648 298 L883 298 L883 243 L648 243 L648 -91 L593 -91 L593 243 L357 243 L357 298 ZM737 599 L503 599 L503 462 L737 462 L737 599 ZM299 429 L299 -81 L244 -81 L244 429 L299 429 ZM375 677 Q352 637 327 601.5 Q302 566 274 534 Q246 501 215.5 471.5 Q185 442 152 415 L117 457 Q178 508 233 569 Q285 630 328 704 L375 677 ZM774 176 Q786 149 798 123.5 Q810 98 823 74 Q849 25 876 -17 L829 -46 Q815 -23 801.5 0 Q788 23 775 48 Q761 73 748.5 99.5 Q736 126 724 154 L774 176 ZM516 154 Q492 98 466 48 Q452 23 438.5 0 Q425 -23 411 -46 L365 -17 Q379 4 391.5 27 Q404 50 417 74 Q430 98 442.5 123.5 Q455 149 466 176 L516 154 Z" /><glyph glyph-name="cid1052" unicode="&#x80cc;" d="M272 -84 L272 297 L718 297 L718 -78 L578 -78 L578 -24 L663 -24 L663 242 L327 242 L327 -84 L272 -84 ZM619 639 L619 423 Q619 410 629 400 Q638 391 652 391 L799 391 L799 469 L853 469 L853 336 L652 336 Q615 336 590 361 Q578 373 571 389 Q564 405 564 423 L564 639 L619 639 ZM425 639 L425 330 L370 330 L370 639 L425 639 ZM389 191 L601 191 L601 136 L389 136 L389 191 ZM389 82 L601 82 L601 28 L389 28 L389 82 ZM664 557 L830 621 L850 570 L684 506 L664 557 ZM147 595 L321 595 L321 540 L147 540 L147 595 ZM147 428 L321 428 L321 374 L147 374 L147 428 Z" /><glyph glyph-name="cid1063" unicode="&#x672c;" d="M348 106 L472 106 L472 461 L136 461 L136 516 L472 516 L472 676 L527 676 L527 516 L864 516 L864 461 L527 461 L527 106 L651 106 L651 51 L527 51 L527 -82 L472 -82 L472 51 L348 51 L348 106 ZM691 388 Q707 340 728.5 293 Q750 246 775 201 Q801 155 829 115 Q857 75 884 45 L844 8 Q815 40 785 83 Q755 126 727 174 Q701 222 678.5 271 Q656 320 639 370 L691 388 ZM360 370 Q343 320 320.5 271 Q298 222 272 174 Q245 126 215 83 Q185 40 156 8 L115 45 Q143 75 171 115 Q199 155 225 201 Q250 246 271.5 293 Q293 340 308 388 L360 370 Z" /><glyph glyph-name="cid1073" unicode="&#x2f50;&#x6bd4;" d="M556 642 L556 61 Q556 34 575 17 Q592 -2 619 -2 L766 -2 L766 107 L821 107 L821 -56 L619 -56 Q594 -56 573 -47 Q552 -38 536 -22 Q520 -6 510.5 15.5 Q501 37 501 61 L501 642 L556 642 ZM210 642 L210 3 L440 3 L440 -51 L155 -51 L155 642 L210 642 ZM604 420 Q633 426 664 435 Q695 444 724 455 Q774 473 815 499 L844 453 Q801 425 743 403 Q711 392 678.5 382.5 Q646 373 615 367 L604 420 ZM267 417 L440 417 L440 362 L267 362 L267 417 Z" /><glyph glyph-name="cid1086" unicode="&#x95ed;" d="M415 619 L815 619 L815 -63 L680 -63 L680 -8 L760 -8 L760 564 L415 564 L415 619 ZM305 376 L556 376 L556 463 L610 463 L610 376 L696 376 L696 321 L610 321 L610 40 L505 40 L505 95 L556 95 L556 321 L305 321 L305 376 ZM240 437 L240 -64 L185 -64 L185 437 L240 437 ZM488 272 Q478 243 464 215.5 Q450 188 433 162 Q412 130 390 102 Q368 74 347 51 L307 88 Q327 110 347 136 Q367 162 386 192 Q402 215 414.5 240 Q427 265 437 291 L488 272 ZM272 531 L204 627 L249 658 L317 562 L272 531 Z" /><glyph glyph-name="cid1089" unicode="&#x5fc5;" d="M848 526 Q781 445 693.5 364 Q606 283 512 210 Q484 188 456.5 167.5 Q429 147 402 128 L402 77 Q402 49 421 32 Q438 13 466 13 L667 13 L667 157 L721 157 L721 -42 L466 -42 Q415 -42 382 -7 Q347 26 347 77 L347 90 Q286 49 231 18 Q176 -13 131 -33 L109 17 Q157 38 218 73.5 Q279 109 347 156 L347 528 L402 528 L402 195 L479 253 Q570 325 655 404 Q740 483 806 561 L848 526 ZM107 179 L190 427 L242 410 L159 161 L107 179 ZM841 86 L762 334 L815 351 L893 102 L841 86 ZM577 430 L475 637 L524 661 L626 454 L577 430 Z" /><glyph glyph-name="cid1096" unicode="&#x8fb9;" d="M395 116 Q431 161 460.5 216 Q490 271 513 334 Q532 388 546 443 L418 443 L418 498 L560 498 Q573 564 584 636 L638 629 Q633 595 628 562.5 Q623 530 616 498 L791 498 L791 116 L647 116 L647 171 L736 171 L736 443 L603 443 Q595 409 585.5 377.5 Q576 346 565 316 Q540 248 508.5 189.5 Q477 131 437 82 L395 116 ZM331 431 L331 83 Q331 51 349 33 Q367 14 395 14 L823 14 L823 -41 L395 -41 Q371 -41 348.5 -32 Q326 -23 309 -4 L297 10 Q281 -10 258 -26.5 Q235 -43 203 -60 L179 -10 Q205 3 224 16 Q243 29 255 45 Q276 73 276 117 L276 376 L176 376 L176 431 L331 431 ZM267 507 L212 589 L258 620 L313 538 L267 507 Z" /><glyph glyph-name="cid1097" unicode="&#x7f16;" d="M365 -44 Q383 -2 394.5 40 Q406 82 413 127 Q420 172 422.5 219 Q425 266 425 314 L425 570 L840 570 L840 354 L480 354 L480 314 Q480 263 477.5 215 Q475 167 467 119 Q459 71 447 25.5 Q435 -20 416 -65 L365 -44 ZM510 -60 L510 293 L861 293 L861 -56 L778 -56 L778 -2 L806 -2 L806 75 L758 75 L758 -41 L708 -41 L708 75 L664 75 L664 -41 L614 -41 L614 75 L565 75 L565 -60 L510 -60 ZM384 422 L220 195 L359 195 L359 141 L151 141 L151 195 L156 202 L250 332 L141 332 L141 385 L146 392 L269 599 L315 569 L208 387 L290 387 L340 455 L384 422 ZM480 515 L480 409 L785 409 L785 515 L480 515 ZM664 214 L664 130 L708 130 L708 214 L758 214 L758 130 L806 130 L806 238 L565 238 L565 130 L614 130 L614 214 L664 214 ZM138 72 L366 72 L366 17 L138 17 L138 72 ZM619 680 L669 619 L626 585 L577 646 L619 680 Z" /><glyph glyph-name="cid1101" unicode="&#x53d8;" d="M332 201 Q369 172 410 146 Q451 120 496 96 Q547 126 592.5 159.5 Q638 193 675 231 L267 231 L267 286 L730 286 L730 211 L723 203 Q691 165 648.5 131 Q606 97 555 66 Q633 28 712 -1 Q791 -30 865 -47 L853 -100 Q768 -80 676.5 -46 Q585 -12 497 33 Q412 -12 321 -45.5 Q230 -79 148 -100 L136 -47 Q210 -30 287 -2 Q364 26 439 64 Q401 86 366 109 Q331 132 299 157 L332 201 ZM570 329 L570 533 L429 533 L429 329 L374 329 L374 533 L135 533 L135 588 L864 588 L864 533 L625 533 L625 329 L570 329 ZM151 381 L206 449 L249 415 L194 347 L151 381 ZM805 347 L750 415 L792 449 L848 381 L805 347 ZM497 618 L434 677 L471 717 L534 658 L497 618 Z" /><glyph glyph-name="cid1103" unicode="&#x8fa8;" d="M113 137 L200 137 Q204 167 206 199.5 Q208 232 206 266 L81 266 L81 321 L383 321 L383 266 L261 266 Q263 232 261.5 200 Q260 168 256 137 L351 137 L351 82 L246 82 Q246 80 245.5 78 Q245 76 245 74 Q234 24 215 -19 Q196 -62 169 -97 L126 -64 Q170 -4 190 82 L113 82 L113 137 ZM741 -72 L741 82 L649 82 L649 137 L741 137 L741 266 L617 266 L617 321 L919 321 L919 266 L796 266 L796 137 L887 137 L887 82 L796 82 L796 -72 L741 -72 ZM579 610 L579 258 Q579 209 575 161.5 Q571 114 560 69 Q549 23 531.5 -17.5 Q514 -58 486 -93 L444 -58 Q467 -29 482.5 6 Q498 41 507 81 Q517 123 520.5 167 Q524 211 524 258 L524 610 L579 610 ZM642 567 L894 567 L894 512 L642 512 L642 567 ZM107 567 L358 567 L358 512 L107 512 L107 567 ZM495 404 L459 280 L406 296 L442 420 L495 404 ZM239 589 L164 641 L195 686 L270 635 L239 589 ZM775 589 L700 641 L731 686 L806 635 L775 589 ZM691 461 L742 398 L700 363 L648 426 L691 461 ZM155 461 L206 398 L164 363 L112 426 L155 461 ZM352 426 L301 363 L258 398 L310 461 L352 426 ZM888 426 L837 363 L794 398 L846 461 L888 426 Z" /><glyph glyph-name="cid1107" unicode="&#x6807;" d="M94 540 L236 540 L236 707 L291 707 L291 540 L433 540 L433 485 L291 485 L291 -108 L236 -108 L236 485 L94 485 L94 540 ZM437 402 L919 402 L919 347 L437 347 L437 402 ZM705 301 L705 -84 L596 -84 L596 -29 L650 -29 L650 301 L705 301 ZM195 377 L128 64 L74 75 L141 388 L195 377 ZM557 648 L799 648 L799 593 L557 593 L557 648 ZM871 181 L926 56 L875 34 L820 158 L871 181 ZM535 158 L480 34 L430 56 L485 181 L535 158 ZM376 395 L433 282 L384 258 L327 370 L376 395 Z" /><glyph glyph-name="cid1110" unicode="&#x8868;" d="M142 305 L476 305 L476 391 L277 391 L277 446 L476 446 L476 533 L181 533 L181 588 L476 588 L476 679 L531 679 L531 588 L825 588 L825 533 L531 533 L531 446 L730 446 L730 391 L531 391 L531 305 L864 305 L864 250 L142 250 L142 305 ZM852 -72 Q814 -56 774 -31.5 Q734 -7 697 22 Q653 57 615.5 93 Q578 129 552 161 L595 196 Q618 166 653 132 Q688 98 730 66 Q765 39 801.5 16 Q838 -7 873 -21 L852 -72 ZM126 42 Q164 58 202.5 79 Q241 100 279 125 Q317 150 351 176.5 Q385 203 411 230 L450 191 Q421 162 385.5 133.5 Q350 105 309 79 Q269 53 228 30.5 Q187 8 147 -9 L126 42 ZM428 85 L428 -32 L506 -32 L506 -87 L373 -87 L373 85 L428 85 ZM843 147 L744 86 L715 132 L814 193 L843 147 Z" /><glyph glyph-name="cid1113" unicode="&#x522b;" d="M541 391 L179 391 L179 647 L541 647 L541 391 ZM130 -50 Q202 25 251 131 Q267 163 281 202 L171 202 L171 257 L299 257 Q307 281 312.5 306 Q318 331 323 357 L377 348 Q372 325 367 302 Q362 279 356 257 L567 257 L567 -39 L411 -39 L411 16 L512 16 L512 202 L339 202 Q323 154 301 107 Q274 50 241 1.5 Q208 -47 170 -88 L130 -50 ZM870 705 L870 -81 L701 -81 L701 -26 L815 -26 L815 705 L870 705 ZM233 446 L486 446 L486 592 L233 592 L233 446 ZM703 480 L703 285 L648 285 L648 480 L703 480 Z" /><glyph glyph-name="cid1129" unicode="&#x5e76;" d="M108 259 L346 259 Q354 308 356.5 362.5 Q359 417 360 480 L260 480 L260 535 L740 535 L740 480 L640 480 L640 259 L892 259 L892 204 L640 204 L640 -80 L585 -80 L585 204 L392 204 Q391 194 387 181 Q370 111 337.5 48.5 Q305 -14 249 -77 L209 -41 Q260 16 289 73 Q318 130 334 194 L336 204 L108 204 L108 259 ZM585 259 L585 480 L415 480 Q414 417 411.5 362.5 Q409 308 402 259 L585 259 ZM580 610 L627 687 L674 658 L626 581 L580 610 ZM374 581 L327 658 L373 687 L421 610 L374 581 Z" /><glyph glyph-name="cid1136" unicode="&#x535a;" d="M476 303 L581 303 L581 346 L476 346 L476 401 L581 401 L581 450 L448 450 L448 197 L393 197 L393 505 L581 505 L581 561 L350 561 L350 616 L581 616 L581 723 L636 723 L636 616 L866 616 L866 561 L636 561 L636 505 L828 505 L828 197 L773 197 L773 450 L636 450 L636 401 L740 401 L740 346 L636 346 L636 303 L740 303 L740 248 L636 248 L636 197 L581 197 L581 248 L476 248 L476 303 ZM91 460 L194 460 L194 704 L249 704 L249 460 L352 460 L352 405 L249 405 L249 -119 L194 -119 L194 405 L91 405 L91 460 ZM332 132 L698 132 L698 177 L752 177 L752 132 L909 132 L909 77 L752 77 L752 -92 L630 -92 L630 -37 L698 -37 L698 77 L332 77 L332 132 ZM516 -51 L441 3 L473 48 L548 -6 L516 -51 ZM750 625 L708 678 L751 712 L793 658 L750 625 Z" /><glyph glyph-name="cid1154" unicode="&#x4e0d;" d="M154 618 L872 618 L872 563 L154 563 L154 618 ZM121 202 Q170 231 219.5 268.5 Q269 306 316 348.5 Q363 391 406.5 436.5 Q450 482 486 528 L529 494 Q491 446 446.5 398.5 Q402 351 353 307 Q304 263 252.5 224 Q201 185 150 155 L121 202 ZM475 -96 L475 361 L530 361 L530 -96 L475 -96 ZM846 184 L631 334 L662 379 L878 229 L846 184 Z" /><glyph glyph-name="cid1155" unicode="&#x5e03;" d="M579 426 L579 294 L804 294 L804 7 L684 7 L684 62 L749 62 L749 239 L579 239 L579 -108 L524 -108 L524 239 L354 239 L354 0 L299 0 L299 294 L524 294 L524 426 L579 426 ZM122 264 Q171 303 222 356 Q273 409 319 470 Q327 481 335 492.5 Q343 504 351 515 L142 515 L142 570 L388 570 Q408 602 424.5 635.5 Q441 669 454 701 L505 680 Q482 624 451 570 L878 570 L878 515 L417 515 Q391 474 363 437 Q314 373 261 318 Q208 263 156 221 L122 264 Z" /><glyph glyph-name="cid1158" unicode="&#x90e8;" d="M634 -69 L634 619 L866 619 L866 564 Q859 535 849 503.5 Q839 472 825 441 Q817 423 808.5 406 Q800 389 790 373 L869 373 L869 102 L752 102 L752 157 L814 157 L814 319 L720 319 L720 369 L726 376 Q739 393 751.5 415 Q764 437 775 463 Q786 489 795 514.5 Q804 540 810 564 L688 564 L688 -69 L634 -69 ZM222 205 L494 205 L494 -35 L222 -35 L222 205 ZM130 325 L587 325 L587 271 L130 271 L130 325 ZM440 150 L277 150 L277 20 L440 20 L440 150 ZM198 557 L519 557 L519 503 L198 503 L198 557 ZM269 358 L226 428 L273 457 L316 386 L269 358 ZM401 386 L444 457 L491 428 L448 358 L401 386 ZM358 592 L310 649 L352 684 L400 627 L358 592 Z" /><glyph glyph-name="cid1170" unicode="&#x83dc;" d="M124 602 L343 602 L343 661 L398 661 L398 602 L602 602 L602 661 L657 661 L657 602 L876 602 L876 547 L657 547 L657 487 L602 487 L602 547 L398 547 L398 487 L343 487 L343 547 L124 547 L124 602 ZM156 201 L470 201 L470 237 L525 237 L525 201 L839 201 L839 146 L525 146 L525 -60 L470 -60 L470 146 L156 146 L156 201 ZM211 449 L789 464 L790 409 L212 394 L211 449 ZM825 -38 Q762 -18 708 9 Q655 36 610 68 L643 112 Q681 84 732 58 Q785 33 842 14 L825 -38 ZM153 14 Q210 33 263 58 Q314 84 352 112 L385 68 Q340 36 287 9 Q233 -18 170 -38 L153 14 ZM657 287 L702 371 L751 345 L706 261 L657 287 ZM295 261 L250 345 L298 371 L343 287 L295 261 ZM499 261 L454 345 L502 371 L547 287 L499 261 Z" /><glyph glyph-name="cid1184" unicode="&#x64cd;" d="M96 216 L196 216 L196 467 L96 467 L96 522 L196 522 L196 698 L251 698 L251 522 L345 522 L345 467 L251 467 L251 216 L345 216 L345 162 L251 162 L251 -102 L111 -102 L111 -47 L196 -47 L196 162 L96 162 L96 216 ZM371 189 L602 189 L602 242 L656 242 L656 189 L887 189 L887 134 L656 134 L656 -108 L602 -108 L602 134 L371 134 L371 189 ZM517 689 L741 689 L741 504 L517 504 L517 689 ZM395 456 L591 456 L591 273 L395 273 L395 456 ZM667 456 L863 456 L863 273 L667 273 L667 456 ZM870 -88 Q848 -71 827 -54 Q806 -37 786 -17 Q766 3 746 24 Q726 45 706 69 L748 104 Q787 57 824 23 Q862 -14 903 -44 L870 -88 ZM355 -44 Q396 -14 434 23 Q454 41 472.5 61 Q491 81 510 104 L552 69 Q532 45 512 24 Q492 3 472 -17 Q452 -37 431 -54 Q410 -71 388 -88 L355 -44 ZM686 634 L572 634 L572 559 L686 559 L686 634 ZM536 401 L450 401 L450 328 L536 328 L536 401 ZM808 401 L722 401 L722 328 L808 328 L808 401 Z" /><glyph glyph-name="cid1194" unicode="&#x5c42;" d="M134 -70 Q180 1 203 96 Q227 193 227 311 L227 648 L803 648 L803 419 L281 419 L281 311 Q281 249 275 192 Q269 135 256 83 Q230 -21 180 -99 L134 -70 ZM281 593 L281 474 L748 474 L748 593 L281 593 ZM326 186 L866 186 L866 132 L326 132 L326 186 ZM533 74 L462 -31 L728 -31 L728 -86 L397 -86 L397 -29 L402 -22 L488 105 L533 74 ZM463 333 L729 333 L729 278 L463 278 L463 333 ZM784 -92 L713 42 L762 68 L833 -66 L784 -92 Z" /><glyph glyph-name="cid1196" unicode="&#x63d2;" d="M692 102 L791 102 L791 210 L692 210 L692 265 L845 265 L845 -117 L410 -117 L410 265 L562 265 L562 210 L464 210 L464 102 L562 102 L562 47 L464 47 L464 -62 L600 -62 L600 373 L343 373 L343 428 L600 428 L600 560 L655 560 L655 428 L912 428 L912 373 L655 373 L655 -62 L791 -62 L791 47 L692 47 L692 102 ZM87 221 L186 221 L186 484 L87 484 L87 539 L186 539 L186 717 L241 717 L241 539 L334 539 L334 484 L241 484 L241 221 L334 221 L334 167 L241 167 L241 -115 L102 -115 L102 -60 L186 -60 L186 167 L87 167 L87 221 ZM464 647 L788 663 L791 608 L467 592 L464 647 Z" /><glyph glyph-name="cid1200" unicode="&#x67e5;" d="M289 330 L710 330 L710 29 L289 29 L289 330 ZM655 276 L344 276 L344 83 L655 83 L655 276 ZM135 624 L472 624 L472 703 L527 703 L527 624 L864 624 L864 569 L527 569 L527 368 L472 368 L472 569 L135 569 L135 624 ZM113 -40 L886 -40 L886 -95 L113 -95 L113 -40 ZM846 335 Q814 351 781 371 Q748 391 716 414 Q688 434 661.5 456.5 Q635 479 612 504 L651 542 Q673 519 697.5 498 Q722 477 748 458 Q779 436 810 417.5 Q841 399 871 384 L846 335 ZM129 384 Q158 399 189.5 417.5 Q221 436 251 458 Q277 477 302 498 Q327 519 348 542 L388 504 Q365 479 338.5 456.5 Q312 434 283 414 Q251 391 218 371 Q185 351 153 335 L129 384 ZM400 207 L599 207 L599 152 L400 152 L400 207 Z" /><glyph glyph-name="cid1203" unicode="&#x5bdf;" d="M174 109 L832 109 L832 54 L530 54 L530 -130 L390 -130 L390 -75 L476 -75 L476 54 L174 54 L174 109 ZM145 518 L145 624 L862 624 L862 518 L807 518 L807 569 L199 569 L199 518 L145 518 ZM298 507 Q287 486 274 469 L472 469 L472 415 L468 409 Q444 370 410.5 330.5 Q377 291 331 254 Q294 224 248.5 197 Q203 170 148 150 L129 201 Q180 220 221.5 244 Q263 268 297 296 Q332 325 359 354.5 Q386 384 406 414 L224 414 Q210 402 195 390.5 Q180 379 162 368 L134 415 Q174 439 204 471 Q231 500 250 534 L298 507 ZM850 146 Q777 175 725 215.5 Q673 256 636 307 Q600 357 576.5 412 Q553 467 538 525 L591 539 Q605 485 626.5 434.5 Q648 384 680 339 Q713 294 759 258 Q805 222 870 197 L850 146 ZM658 474 L868 474 L868 428 L862 421 L767 289 L723 321 L794 420 L658 420 L658 474 ZM400 245 L606 245 L606 190 L400 190 L400 245 ZM508 638 L431 693 L463 737 L540 682 L508 638 ZM823 -92 L757 -28 L795 11 L861 -53 L823 -92 ZM145 -53 L211 11 L249 -28 L183 -92 L145 -53 ZM207 257 L144 303 L176 347 L239 301 L207 257 ZM286 316 L223 358 L254 403 L317 362 L286 316 Z" /><glyph glyph-name="cid1205" unicode="&#x5dee;" d="M144 280 L355 280 Q369 300 381 321 Q393 342 404 363 L288 363 L288 418 L433 418 Q443 439 452 459.5 Q461 480 469 501 L221 501 L221 556 L807 556 L807 501 L528 501 Q520 480 511.5 459.5 Q503 439 493 418 L741 418 L741 363 L467 363 Q456 342 444 321 Q432 300 420 280 L885 280 L885 225 L384 225 L378 215 Q326 140 267.5 74.5 Q209 9 149 -39 L115 3 Q168 45 219.5 102 Q271 159 318 225 L144 225 L144 280 ZM258 -28 L525 -28 L525 99 L399 99 L399 154 L706 154 L706 99 L580 99 L580 -28 L847 -28 L847 -83 L258 -83 L258 -28 ZM589 645 L658 698 L691 655 L623 601 L589 645 ZM406 601 L337 655 L371 698 L439 645 L406 601 Z" /><glyph glyph-name="cid1217" unicode="&#x4ea7;" d="M121 -94 Q144 -65 161 -34 Q178 -3 189 29 Q201 63 206.5 98 Q212 133 212 168 L212 335 L862 335 L862 280 L267 280 L267 168 Q267 129 261 89.5 Q255 50 241 11 Q228 -25 209 -60 Q190 -95 164 -128 L121 -94 ZM162 584 L878 584 L878 529 L162 529 L162 584 ZM412 367 L341 461 L385 494 L456 400 L412 367 ZM604 400 L676 494 L719 461 L648 367 L604 400 ZM541 625 L469 704 L510 741 L581 661 L541 625 Z" /><glyph glyph-name="cid1222" unicode="&#x573a;" d="M453 652 L795 652 L795 584 L784 576 L521 377 L874 377 L874 -64 L752 -64 L752 -9 L819 -9 L819 322 L440 322 L440 384 L450 392 L721 597 L453 597 L453 652 ZM125 125 L242 125 L242 365 L161 365 L161 420 L242 420 L242 588 L297 588 L297 420 L378 420 L378 365 L297 365 L297 125 L413 125 L413 70 L125 70 L125 125 ZM411 -57 Q455 20 484 105 Q512 187 523 272 L577 264 Q567 177 536 88 Q521 44 501.5 1.5 Q482 -41 459 -84 L411 -57 ZM579 -57 Q601 -17 619.5 23 Q638 63 652 105 Q666 147 676 188.5 Q686 230 691 272 L745 264 Q733 175 703 88 Q689 44 669.5 1.5 Q650 -41 626 -84 L579 -57 Z" /><glyph glyph-name="cid1224" unicode="&#x5e38;" d="M676 260 L324 260 L324 456 L676 456 L676 260 ZM473 -113 L473 122 L264 122 L264 -5 L209 -5 L209 177 L473 177 L473 239 L528 239 L528 177 L791 177 L791 -12 L663 -12 L663 43 L736 43 L736 122 L528 122 L528 -113 L473 -113 ZM528 714 L528 575 L855 575 L855 443 L800 443 L800 520 L200 520 L200 443 L145 443 L145 575 L473 575 L473 714 L528 714 ZM379 315 L621 315 L621 401 L379 401 L379 315 ZM672 641 L730 701 L770 663 L711 603 L672 641 ZM289 603 L231 663 L270 701 L328 641 L289 603 Z" /><glyph glyph-name="cid1225" unicode="&#x957f;" d="M138 335 L324 335 L324 622 L379 622 L379 335 L861 335 L861 280 L379 280 L379 3 L455 3 L455 -52 L324 -52 L324 280 L138 280 L138 335 ZM551 242 Q581 207 615 172.5 Q649 138 684 107 Q721 75 758.5 47 Q796 19 831 -3 L802 -50 Q728 -3 648 66 Q611 98 576 133.5 Q541 169 509 207 L551 242 ZM480 426 Q512 445 542.5 464.5 Q573 484 602 507 Q660 549 717 603 L754 563 Q725 535 695.5 510.5 Q666 486 635 463 Q603 440 571.5 419 Q540 398 507 379 L480 426 Z" /><glyph glyph-name="cid1233" unicode="&#x8d85;" d="M552 290 L811 290 L811 64 L552 64 L552 290 ZM856 -42 L466 -42 Q401 -42 358.5 -36 Q316 -30 286 -16 Q249 0 225 26 Q221 6 216.5 -12.5 Q212 -31 207 -51 L154 -37 Q163 -5 169 27.5 Q175 60 180 92 Q185 124 187.5 157.5 Q190 191 193 226 L248 222 Q245 190 242.5 160 Q240 130 236 99 Q253 76 269.5 59.5 Q286 43 308 34 Q333 23 370 18 Q407 13 466 13 L856 13 L856 -42 ZM144 374 L296 374 L296 504 L215 504 L215 559 L296 559 L296 656 L350 656 L350 559 L431 559 L431 504 L350 504 L350 374 L502 374 L502 319 L144 319 L144 374 ZM544 601 L828 601 L828 332 L722 332 L722 387 L773 387 L773 546 L544 546 L544 601 ZM368 282 L368 205 L460 205 L460 150 L368 150 L368 56 L313 56 L313 282 L368 282 ZM756 235 L607 235 L607 119 L756 119 L756 235 ZM671 496 Q650 446 622 402 Q608 378 592.5 356 Q577 334 560 314 L518 349 Q533 368 547.5 388 Q562 408 576 431 Q588 451 599.5 473 Q611 495 621 518 L671 496 Z" /><glyph glyph-name="cid1242" unicode="&#x8f66;" d="M545 431 L545 313 L766 313 L766 258 L545 258 L545 140 L852 140 L852 85 L545 85 L545 -89 L490 -89 L490 85 L147 85 L147 140 L490 140 L490 258 L251 258 L251 305 L253 310 L336 513 L147 513 L147 568 L358 568 L404 680 L455 659 L418 568 L852 568 L852 513 L395 513 L314 313 L490 313 L490 431 L545 431 Z" /><glyph glyph-name="cid1244" unicode="&#x64a4;" d="M74 226 L166 226 L166 477 L74 477 L74 532 L166 532 L166 708 L221 708 L221 532 L307 532 L307 477 L221 477 L221 226 L307 226 L307 172 L221 172 L221 -92 L98 -92 L98 -37 L166 -37 L166 172 L74 172 L74 226 ZM724 433 Q734 380 746 332 Q758 284 772 239 Q787 300 796 366 Q805 432 810 504 L865 501 Q860 404 844.5 315.5 Q829 227 804 148 Q833 73 863.5 12.5 Q894 -48 925 -97 L879 -126 Q853 -84 826.5 -35 Q800 14 775 72 Q752 18 724 -29 Q696 -76 661 -117 L620 -81 Q660 -34 691 22.5 Q722 79 746 147 Q724 207 704.5 275.5 Q685 344 670 422 L724 433 ZM337 -117 L337 274 L605 274 L605 -112 L500 -112 L500 -57 L550 -57 L550 219 L391 219 L391 -117 L337 -117 ZM740 695 Q735 666 730 639 Q725 612 718 586 L901 586 L901 531 L701 531 Q683 483 658 442 L611 470 Q626 496 638 522.5 Q650 549 659 578 Q677 637 686 703 L740 695 ZM454 506 L392 391 L533 391 L533 336 L325 336 L325 381 L328 388 L406 532 L454 506 ZM313 604 L625 604 L625 549 L313 549 L313 604 ZM582 333 L528 443 L578 467 L631 356 L582 333 ZM418 156 L523 156 L523 101 L418 101 L418 156 ZM418 41 L523 41 L523 -14 L418 -14 L418 41 ZM475 626 L423 681 L463 718 L515 663 L475 626 Z" /><glyph glyph-name="cid1254" unicode="&#x6c89;" d="M284 -31 Q328 6 354.5 44 Q381 82 395 122 Q409 163 414 204.5 Q419 246 419 288 L419 418 L715 418 L715 42 Q715 28 724 19 Q734 9 747 9 L838 9 L838 113 L892 113 L892 -46 L747 -46 Q711 -46 685 -20 Q674 -8 667 8 Q660 24 660 42 L660 363 L474 363 L474 288 Q474 242 468.5 196 Q463 150 446 104 Q429 57 399 13 Q369 -31 319 -73 L284 -31 ZM297 501 L297 625 L844 625 L844 501 L790 501 L790 570 L352 570 L352 501 L297 501 ZM250 69 L134 5 L107 53 L223 117 L250 69 ZM226 506 L109 558 L132 608 L248 557 L226 506 ZM226 255 L109 306 L132 357 L248 305 L226 255 Z" /><glyph glyph-name="cid1262" unicode="&#x6210;" d="M596 703 Q599 657 602.5 615 Q606 573 610 533 L875 533 L875 478 L616 478 Q627 379 639.5 300 Q652 221 666 158 L815 344 L858 310 L684 92 Q730 -57 789 -66 Q798 -66 811 -47 Q830 -17 846 44 L899 30 Q890 -6 879 -32.5 Q868 -59 857 -77 Q828 -121 788 -121 L785 -121 Q742 -116 707 -76.5 Q672 -37 643 40 L549 -78 L506 -43 L623 104 Q605 174 589 266.5 Q573 359 560 478 L257 478 L257 336 L468 336 L468 2 L330 2 L330 57 L413 57 L413 281 L257 281 Q256 231 251 182.5 Q246 134 233 87 Q220 36 198 -10.5 Q176 -57 144 -99 L101 -66 Q130 -28 149.5 13.5 Q169 55 180 100 Q192 146 197.5 193.5 Q203 241 203 290 L203 533 L555 533 Q551 572 547.5 613.5 Q544 655 541 700 L596 703 ZM748 566 L679 646 L720 682 L789 601 L748 566 Z" /><glyph glyph-name="cid1284" unicode="&#x5c3a;" d="M133 -58 Q181 15 206 112 Q230 208 230 321 L230 641 L764 641 L764 355 L285 355 L285 321 Q285 203 259 99 Q233 -5 178 -89 L133 -58 ZM285 586 L285 410 L709 410 L709 586 L285 586 ZM836 -86 Q737 -17 661 79 Q582 177 532 288 L582 310 Q629 203 703 113 Q739 69 780 30 Q821 -9 867 -41 L836 -86 Z" /><glyph glyph-name="cid1289" unicode="&#x5145;" d="M110 589 L883 589 L883 534 L421 534 L310 354 L671 354 L671 299 L248 299 L248 359 L252 365 L357 534 L110 534 L110 589 ZM640 244 L640 31 Q640 1 656 -15 Q664 -24 675.5 -28.5 Q687 -33 698 -33 L835 -33 L835 79 L889 79 L889 -87 L698 -87 Q675 -87 654 -78.5 Q633 -70 616 -53 Q602 -38 593.5 -17 Q585 4 585 31 L585 244 L640 244 ZM408 234 Q390 109 326 25 Q292 -21 248.5 -54 Q205 -87 152 -110 L130 -60 Q224 -20 282 57 Q309 94 327.5 139.5 Q346 185 354 241 L408 234 ZM746 288 L661 414 L706 445 L791 318 L746 288 ZM505 631 L445 689 L483 729 L543 671 L505 631 Z" /><glyph glyph-name="cid1306" unicode="&#x521d;" d="M155 554 L439 554 L439 495 L435 488 Q414 445 391.5 407.5 Q369 370 340 334 L340 -82 L285 -82 L285 275 Q236 228 169 181 L137 225 Q185 259 222 293.5 Q259 328 287.5 362 Q316 396 338 430.5 Q360 465 378 499 L155 499 L155 554 ZM518 599 L862 599 L862 -22 L708 -22 L708 33 L807 33 L807 544 L518 544 L518 599 ZM434 -69 Q476 -13 507.5 52.5 Q539 118 561.5 188.5 Q584 259 597.5 332 Q611 405 616 476 L670 472 Q664 397 648.5 318 Q633 239 609 163.5 Q585 88 552 20 Q519 -48 477 -102 L434 -69 ZM405 244 L493 169 L457 127 L369 203 L405 244 ZM273 706 L343 634 L303 596 L233 669 L273 706 ZM372 302 L446 367 L482 326 L408 261 L372 302 Z" /><glyph glyph-name="cid1307" unicode="&#x51fa;" d="M527 679 L527 385 L709 385 L709 589 L764 589 L764 331 L527 331 L527 59 L472 59 L472 331 L235 331 L235 589 L290 589 L290 385 L472 385 L472 679 L527 679 ZM837 202 L837 -57 L162 -57 L162 202 L217 202 L217 -2 L782 -2 L782 202 L837 202 Z" /><glyph glyph-name="cid1314" unicode="&#x9664;" d="M149 -51 L149 609 L388 609 L388 557 L387 554 Q381 527 371 501 Q361 475 349 450 Q339 431 328.5 413 Q318 395 306 378 L388 378 L388 122 L269 122 L269 176 L333 176 L333 323 L234 323 L234 373 L240 381 Q257 402 272 425.5 Q287 449 300 474 Q310 494 317.5 514 Q325 534 331 554 L204 554 L204 -51 L149 -51 ZM428 263 L614 263 L614 373 L543 373 L543 428 L734 428 L734 373 L669 373 L669 263 L850 263 L850 208 L669 208 L669 -41 L575 -41 L575 14 L614 14 L614 208 L428 208 L428 263 ZM429 454 L619 645 L658 645 L848 454 L810 415 L639 587 L468 415 L429 454 ZM438 53 L478 126 L526 99 L486 26 L438 53 ZM792 26 L752 99 L800 126 L840 53 L792 26 Z" /><glyph glyph-name="cid1321" unicode="&#x5904;" d="M249 373 Q266 330 284 293.5 Q302 257 320 225 L324 231 Q362 296 389 359 Q416 422 436 482 L236 482 Q219 448 200.5 418 Q182 388 165 363 L121 395 Q138 419 155 447.5 Q172 476 188 508 Q202 538 215 570 Q228 602 238 635 L291 619 Q278 579 261 537 L492 537 L492 477 L490 473 Q470 409 441 340.5 Q412 272 371 203 L353 173 Q383 129 415 99 Q457 57 501 38 Q545 19 593 19 L886 19 L886 -36 L593 -36 Q533 -36 479.5 -13 Q426 10 376 60 Q362 74 348 90 Q334 106 320 125 Q285 75 242.5 27 Q200 -21 149 -67 L113 -26 Q166 22 209.5 71.5 Q253 121 288 173 Q240 250 199 353 L249 373 ZM632 656 L632 84 L577 84 L577 656 L632 656 ZM746 447 L835 345 L793 309 L705 411 L746 447 Z" /><glyph glyph-name="cid1326" unicode="&#x4f20;" d="M313 398 L505 398 L546 530 L457 530 L457 585 L563 585 L600 704 L653 687 L621 585 L776 585 L776 530 L604 530 L562 398 L920 398 L920 343 L545 343 L507 219 L800 219 L800 164 L796 157 L648 -88 L640 -102 L599 -102 L591 -91 L469 65 L512 98 L616 -35 L736 164 L449 164 L449 217 L450 221 L488 343 L313 343 L313 398 ZM257 415 L257 -100 L202 -100 L202 415 L257 415 ZM338 678 Q315 638 290 602.5 Q265 567 237 535 Q209 502 178.5 472.5 Q148 443 115 416 L80 458 Q141 509 196 570 Q248 631 291 705 L338 678 Z" /><glyph glyph-name="cid1331" unicode="&#x7a97;" d="M233 336 L762 336 L762 -108 L233 -108 L233 336 ZM707 282 L288 282 L288 -54 L707 -54 L707 282 ZM433 148 L512 108 Q563 136 594 167 L413 167 Q399 153 384 141.5 Q369 130 354 119 L324 165 Q338 175 352 186 Q366 197 378 209 Q389 220 398.5 232 Q408 244 415 257 L463 230 Q461 228 460.5 226 Q460 224 458 222 L666 222 L666 167 L661 160 Q628 117 570 80 L643 44 L618 -5 L512 48 Q472 29 425.5 15 Q379 1 325 -7 L317 47 Q352 52 385 60.5 Q418 69 447 80 L409 99 L433 148 ZM153 453 L153 588 L846 588 L846 453 L791 453 L791 533 L208 533 L208 453 L153 453 ZM374 464 L268 391 L237 435 L342 509 L374 464 ZM656 509 L762 435 L730 391 L625 464 L656 509 ZM520 404 L450 345 L415 387 L485 446 L520 404 ZM503 605 L438 663 L474 704 L540 645 L503 605 Z" /><glyph glyph-name="cid1335" unicode="&#x521b;" d="M398 158 L466 158 L466 325 L257 325 L257 37 Q257 7 273 -9 Q281 -18 292.5 -22.5 Q304 -27 315 -27 L562 -27 L562 60 L616 60 L616 -81 L315 -81 Q292 -81 271 -72.5 Q250 -64 233 -47 Q219 -32 210.5 -11 Q202 10 202 37 L202 380 L521 380 L521 103 L398 103 L398 158 ZM882 703 L882 -103 L713 -103 L713 -48 L827 -48 L827 703 L882 703 ZM118 441 L342 671 L381 671 L605 441 L566 402 L361 613 L157 402 L118 441 ZM730 448 L730 253 L675 253 L675 448 L730 448 Z" /><glyph glyph-name="cid1346" unicode="&#x7eaf;" d="M474 422 L474 227 L567 227 L567 513 L377 513 L377 568 L567 568 L567 680 L622 680 L622 568 L815 568 L815 513 L622 513 L622 227 L716 227 L716 422 L771 422 L771 172 L622 172 L622 72 Q622 53 627.5 39.5 Q633 26 642 16 Q652 5 666 0 Q680 -5 694 -5 L834 -5 L834 109 L888 109 L888 -60 L694 -60 Q668 -60 644.5 -50.5 Q621 -41 602 -21 Q586 -4 576.5 19 Q567 42 567 72 L567 172 L419 172 L419 422 L474 422 ZM359 438 L182 174 L356 174 L356 119 L118 119 L118 175 L122 182 L243 363 L115 363 L115 418 L119 425 L263 659 L310 631 L179 418 L279 418 L313 468 L359 438 ZM112 16 L368 16 L368 -39 L112 -39 L112 16 Z" /><glyph glyph-name="cid1358" unicode="&#x6b64;" d="M97 18 L176 18 L176 438 L231 438 L231 18 L337 18 L337 621 L392 621 L392 367 L502 367 L502 313 L392 313 L392 18 L511 18 L511 -37 L97 -37 L97 18 ZM610 621 L610 70 Q610 43 629 24 Q646 5 673 5 L847 5 L847 104 L902 104 L902 -50 L673 -50 Q648 -50 627 -40.5 Q606 -31 590 -14 Q555 19 555 70 L555 621 L610 621 ZM648 377 Q709 391 764.5 413 Q820 435 874 468 L903 421 Q845 386 785.5 362 Q726 338 660 324 L648 377 Z" /><glyph glyph-name="cid1361" unicode="&#x6b21;" d="M287 -43 Q363 -2 414.5 44 Q466 90 498.5 146.5 Q531 203 547.5 273 Q564 343 570 433 L625 429 Q618 332 599.5 255 Q581 178 544.5 115.5 Q508 53 451 2.5 Q394 -48 312 -92 L287 -43 ZM748 379 L813 515 L527 515 L527 570 L880 570 L880 522 L795 352 L748 379 ZM505 674 Q494 636 477.5 594 Q461 552 440.5 511 Q420 470 396 432.5 Q372 395 347 365 L306 401 Q328 428 350.5 463.5 Q373 499 392.5 538 Q412 577 427.5 616 Q443 655 452 689 L505 674 ZM837 -85 L647 126 L684 164 L875 -47 L837 -85 ZM254 118 L156 31 L119 72 L217 159 L254 118 ZM217 445 L119 532 L156 573 L254 486 L217 445 Z" /><glyph glyph-name="cid1369" unicode="&#x7c97;" d="M400 5 L498 5 L498 640 L814 640 L814 5 L912 5 L912 -50 L400 -50 L400 5 ZM759 585 L553 585 L553 5 L759 5 L759 585 ZM111 366 L255 366 L255 628 L310 628 L310 366 L455 366 L455 311 L310 311 L310 -35 L255 -35 L255 311 L111 311 L111 366 ZM216 224 L140 -10 L88 6 L164 241 L216 224 ZM585 417 L727 417 L727 362 L585 362 L585 417 ZM585 222 L727 222 L727 167 L585 167 L585 222 ZM398 240 L434 121 L381 105 L345 224 L398 240 ZM160 447 L124 538 L175 558 L211 467 L160 447 ZM355 467 L391 558 L442 538 L406 447 L355 467 Z" /><glyph glyph-name="cid1386" unicode="&#x2f28;&#x5bf8;" d="M132 481 L616 481 L616 650 L671 650 L671 481 L867 481 L867 426 L671 426 L671 -79 L534 -79 L534 -24 L616 -24 L616 426 L132 426 L132 481 ZM388 113 L273 228 L312 267 L427 152 L388 113 Z" /><glyph glyph-name="cid1392" unicode="&#x9519;" d="M467 240 L822 240 L822 -81 L467 -81 L467 240 ZM381 374 L533 374 L533 494 L460 494 L460 549 L533 549 L533 665 L587 665 L587 549 L701 549 L701 665 L756 665 L756 549 L829 549 L829 494 L756 494 L756 374 L908 374 L908 319 L381 319 L381 374 ZM767 185 L522 185 L522 -26 L767 -26 L767 185 ZM108 211 L216 211 L216 325 L141 325 L141 380 L348 380 L348 325 L271 325 L271 211 L382 211 L382 156 L271 156 L271 41 L349 41 L349 -14 L216 -14 L216 156 L108 156 L108 211 ZM587 374 L701 374 L701 494 L587 494 L587 374 ZM212 578 Q207 557 199.5 532.5 Q192 508 181 485 Q161 436 136 404 L92 437 Q103 451 112.5 469 Q122 487 131 507 Q140 528 147 549 Q154 570 158 589 L212 578 ZM214 523 L382 523 L382 468 L214 468 L214 523 ZM561 107 L728 107 L728 52 L561 52 L561 107 Z" /><glyph glyph-name="cid1394" unicode="&#x8fbe;" d="M160 425 L315 425 L315 80 Q315 48 333 30 Q351 11 379 11 L840 11 L840 -44 L379 -44 Q356 -44 333 -35 Q310 -26 293 -7 L281 7 Q265 -13 242 -29.5 Q219 -46 187 -63 L163 -13 Q216 12 239 42 Q260 70 260 114 L260 370 L160 370 L160 425 ZM411 474 L566 474 Q572 512 575 551.5 Q578 591 580 635 L634 634 Q632 591 629 551.5 Q626 512 621 474 L799 474 L799 419 L612 419 Q607 395 601 372 Q595 349 587 326 Q564 257 527 195.5 Q490 134 436 74 L395 111 Q446 166 480 223 Q514 280 535 344 Q547 380 556 419 L411 419 L411 474 ZM660 336 L824 108 L779 76 L615 304 L660 336 ZM254 505 L202 590 L248 619 L300 534 L254 505 Z" /><glyph glyph-name="cid1398" unicode="&#x2f24;&#x5927;" d="M177 430 L447 430 Q458 484 464.5 542 Q471 600 473 663 L528 661 Q526 598 520 541 Q514 484 503 430 L818 430 L818 375 L491 375 Q483 342 472.5 311 Q462 280 450 250 Q412 157 351.5 74.5 Q291 -8 203 -87 L166 -46 Q251 29 307.5 106.5 Q364 184 399 271 Q410 296 418 322 Q426 348 434 375 L177 375 L177 430 ZM587 302 Q622 203 685 113 Q716 70 752.5 30.5 Q789 -9 834 -45 L799 -87 Q752 -49 712.5 -6.5 Q673 36 640 82 Q573 177 535 284 L587 302 Z" /><glyph glyph-name="cid1403" unicode="&#x5e26;" d="M527 306 L527 219 L739 219 L739 -27 L625 -27 L625 28 L684 28 L684 164 L527 164 L527 -116 L472 -116 L472 164 L315 164 L315 -23 L261 -23 L261 219 L472 219 L472 306 L527 306 ZM151 618 L277 618 L277 706 L331 706 L331 618 L472 618 L472 706 L527 706 L527 618 L668 618 L668 706 L723 706 L723 618 L848 618 L848 563 L723 563 L723 475 L668 475 L668 563 L527 563 L527 475 L472 475 L472 563 L331 563 L331 475 L277 475 L277 563 L151 563 L151 618 ZM122 240 L122 416 L877 416 L877 240 L822 240 L822 361 L177 361 L177 240 L122 240 Z" /><glyph glyph-name="cid1405" unicode="&#x4ee3;" d="M371 405 L547 405 Q536 474 528 542 Q520 610 515 671 L570 675 Q575 614 583 545 Q591 476 602 405 L888 405 L888 350 L611 350 Q621 296 632 245 Q643 194 657 149 Q679 72 703 21 Q727 -30 752 -35 Q755 -34 760 -26.5 Q765 -19 771 -8 Q782 13 791.5 42 Q801 71 809 102 L862 90 Q854 55 843.5 23 Q833 -9 819 -33 Q805 -59 788 -74.5 Q771 -90 751 -90 L749 -89 Q702 -84 666.5 -22.5 Q631 39 604 134 Q590 182 578.5 237 Q567 292 556 350 L371 350 L371 405 ZM294 410 L294 -100 L239 -100 L239 410 L294 410 ZM355 670 Q315 592 262 525 Q236 493 207 463.5 Q178 434 147 406 L111 447 Q168 497 219 560 Q268 619 306 694 L355 670 ZM730 512 L686 597 L735 622 L779 537 L730 512 Z" /><glyph glyph-name="cid1414" unicode="&#x5355;" d="M74 127 L472 127 L472 235 L250 235 L250 583 L749 583 L749 235 L527 235 L527 127 L925 127 L925 72 L527 72 L527 -118 L472 -118 L472 72 L74 72 L74 127 ZM695 528 L527 528 L527 437 L619 437 L619 382 L527 382 L527 290 L695 290 L695 528 ZM380 437 L472 437 L472 528 L305 528 L305 290 L472 290 L472 382 L380 382 L380 437 ZM370 718 L426 649 L383 615 L328 683 L370 718 ZM672 683 L616 615 L574 649 L629 718 L672 683 Z" /><glyph glyph-name="cid1420" unicode="&#x4f46;" d="M450 572 L812 572 L812 148 L450 148 L450 572 ZM757 517 L505 517 L505 203 L757 203 L757 517 ZM328 416 L328 -88 L274 -88 L274 416 L328 416 ZM399 2 L863 2 L863 -53 L399 -53 L399 2 ZM415 666 Q392 631 365 597 Q338 563 308 531 Q276 497 241.5 466.5 Q207 436 170 407 L137 450 Q172 477 205 507 Q238 537 268 569 Q297 599 322 630.5 Q347 662 368 696 L415 666 ZM546 387 L716 387 L716 333 L546 333 L546 387 Z" /><glyph glyph-name="cid1424" unicode="&#x5f39;" d="M396 142 L623 142 L623 235 L467 235 L467 587 L835 587 L835 235 L678 235 L678 142 L906 142 L906 88 L678 88 L678 -101 L623 -101 L623 88 L396 88 L396 142 ZM93 668 L365 668 L365 396 L154 396 L154 228 L373 228 L373 -82 L206 -82 L206 -28 L318 -28 L318 173 L99 173 L99 451 L310 451 L310 613 L93 613 L93 668 ZM780 533 L678 533 L678 439 L758 439 L758 384 L678 384 L678 290 L780 290 L780 533 ZM544 439 L623 439 L623 533 L522 533 L522 290 L623 290 L623 384 L544 384 L544 439 ZM556 716 L593 643 L544 618 L507 691 L556 716 ZM794 691 L757 618 L709 643 L745 716 L794 691 Z" /><glyph glyph-name="cid1426" unicode="&#x5f53;" d="M180 393 L472 393 L472 662 L526 662 L526 393 L819 393 L819 -53 L180 -53 L180 2 L764 2 L764 338 L180 338 L180 393 ZM221 198 L680 198 L680 143 L221 143 L221 198 ZM236 605 L306 523 L265 488 L194 569 L236 605 ZM804 569 L733 488 L692 523 L762 605 L804 569 Z" /><glyph glyph-name="cid1437" unicode="&#x5bfc;" d="M301 535 L664 535 L664 618 L252 618 L252 403 Q252 386 265 373 Q279 361 295 361 L804 361 L804 448 L859 448 L859 306 L295 306 Q275 306 257.5 313.5 Q240 321 226 335 Q213 348 205.5 365.5 Q198 383 198 403 L198 673 L719 673 L719 480 L301 480 L301 535 ZM119 211 L617 211 L617 279 L672 279 L672 211 L880 211 L880 156 L672 156 L672 -94 L535 -94 L535 -39 L617 -39 L617 156 L119 156 L119 211 ZM376 -33 L291 54 L330 92 L415 5 L376 -33 Z" /><glyph glyph-name="cid1438" unicode="&#x5230;" d="M119 -2 L332 -2 L332 127 L203 127 L203 182 L332 182 L332 279 L387 279 L387 182 L517 182 L517 127 L387 127 L387 -2 L601 -2 L601 -57 L119 -57 L119 -2 ZM881 690 L881 -96 L712 -96 L712 -41 L826 -41 L826 690 L881 690 ZM346 518 L242 375 L472 375 L472 320 L178 320 L178 381 L184 388 L302 550 L346 518 ZM151 629 L593 629 L593 574 L151 574 L151 629 ZM689 465 L689 270 L634 270 L634 465 L689 465 ZM530 310 L455 437 L502 464 L577 338 L530 310 Z" /><glyph glyph-name="cid1444" unicode="&#x5f97;" d="M441 678 L808 678 L808 389 L441 389 L441 678 ZM625 -51 L697 -51 L697 120 L353 120 L353 175 L697 175 L697 268 L416 268 L416 322 L834 322 L834 268 L752 268 L752 175 L896 175 L896 120 L752 120 L752 -106 L625 -106 L625 -51 ZM753 623 L496 623 L496 444 L753 444 L753 623 ZM286 302 L286 -113 L231 -113 L231 302 L286 302 ZM376 685 Q326 629 263 584 Q231 561 196.5 541 Q162 521 126 505 L104 555 Q170 585 231 628 Q260 649 285.5 672 Q311 695 334 721 L376 685 ZM376 470 Q352 442 324.5 418 Q297 394 266 372 Q234 349 198.5 330 Q163 311 126 294 L104 344 Q139 360 171.5 378 Q204 396 235 417 Q289 455 334 506 L376 470 ZM534 564 L716 564 L716 509 L534 509 L534 564 ZM546 -39 L463 22 L495 66 L579 5 L546 -39 Z" /><glyph glyph-name="cid1445" unicode="&#x7684;" d="M175 495 L423 495 L423 -12 L175 -12 L175 495 ZM276 269 L368 269 L368 440 L230 440 L230 43 L368 43 L368 214 L276 214 L276 269 ZM594 546 L825 546 L825 -36 L656 -36 L656 19 L770 19 L770 491 L594 491 L594 546 ZM604 632 Q594 599 583.5 570 Q573 541 559 514 Q546 487 530.5 462.5 Q515 438 496 414 L453 447 Q486 490 510 538 Q522 562 532 589 Q542 616 551 647 L604 632 ZM602 187 L539 301 L587 328 L650 214 L602 187 ZM250 555 L292 643 L341 617 L299 529 L250 555 Z" /><glyph glyph-name="cid1447" unicode="&#x706f;" d="M296 634 L296 427 Q296 364 287.5 303 Q279 242 261 181 Q226 59 147 -54 L102 -22 Q140 31 166 85.5 Q192 140 209 197 Q226 254 233.5 311 Q241 368 241 427 L241 634 L296 634 ZM713 496 L713 -70 L560 -70 L560 -15 L658 -15 L658 496 L713 496 ZM442 612 L901 612 L901 558 L442 558 L442 612 ZM345 175 L432 36 L385 7 L299 146 L345 175 ZM152 503 L180 395 L127 381 L99 489 L152 503 ZM437 489 L409 381 L357 395 L384 503 L437 489 Z" /><glyph glyph-name="cid1449" unicode="&#x7b49;" d="M114 282 L472 282 L472 371 L301 371 L301 425 L472 425 L472 482 L527 482 L527 425 L698 425 L698 371 L527 371 L527 282 L885 282 L885 227 L114 227 L114 282 ZM207 143 L598 143 L598 200 L653 200 L653 143 L792 143 L792 88 L653 88 L653 -107 L516 -107 L516 -52 L598 -52 L598 88 L207 88 L207 143 ZM288 679 Q280 650 268 622 Q256 594 242 566 Q227 537 209.5 511.5 Q192 486 173 463 L131 498 Q148 518 164 542 Q180 566 194 592 Q207 617 217.5 642.5 Q228 668 236 694 L288 679 ZM637 625 L848 625 L848 570 L637 570 L637 625 ZM282 625 L490 625 L490 570 L282 570 L282 625 ZM643 677 Q626 630 596 583 Q581 560 563.5 538.5 Q546 517 527 498 L488 537 Q522 570 550 613 Q576 652 592 695 L643 677 ZM416 -58 L313 11 L344 57 L447 -13 L416 -58 ZM726 453 L655 512 L690 554 L761 495 L726 453 ZM354 458 L297 514 L336 553 L393 496 L354 458 Z" /><glyph glyph-name="cid1464" unicode="&#x5e95;" d="M656 335 Q658 315 662 278 Q666 241 674 197 L857 197 L857 142 L686 142 Q688 134 690 127 Q692 120 694 112 Q703 82 714 55 Q725 28 738.5 6.5 Q752 -15 768.5 -28.5 Q785 -42 805 -45 Q809 -45 813.5 -38 Q818 -31 823 -21.5 Q828 -12 833 -0.5 Q838 11 843 21 Q843 22 843 22 Q843 22 847 30 L897 8 L893 0 Q887 -15 878.5 -32.5 Q870 -50 859.5 -65 Q849 -80 835 -90 Q821 -100 804 -100 L802 -100 Q770 -97 745 -80 Q720 -63 700.5 -36 Q681 -9 666.5 25.5 Q652 60 642 97 Q634 119 630 142 L405 142 L405 -30 L504 -30 L504 -85 L350 -85 L350 405 L376 406 L788 428 L791 373 L405 353 L405 197 L619 197 Q611 239 607.5 274.5 Q604 310 602 330 L656 335 ZM103 -57 Q133 -12 149.5 31.5 Q166 75 174 117 Q182 159 183.5 198.5 Q185 238 185 274 L185 563 L850 563 L850 508 L240 508 L240 274 Q240 236 238 194.5 Q236 153 227 106 Q219 60 200.5 11.5 Q182 -37 149 -87 L103 -57 ZM598 -106 L547 -4 L595 20 L647 -81 L598 -106 ZM520 593 L449 666 L488 705 L560 631 L520 593 Z" /><glyph glyph-name="cid1467" unicode="&#x7b2c;" d="M242 428 L790 428 L790 241 L539 241 L539 159 L809 159 L809 -44 L676 -44 L676 11 L754 11 L754 104 L539 104 L539 -103 L484 -103 L484 104 L233 104 L233 296 L484 296 L484 373 L242 373 L242 428 ZM288 159 L484 159 L484 241 L288 241 L288 159 ZM735 296 L735 373 L539 373 L539 296 L735 296 ZM143 -40 Q176 -29 206.5 -14.5 Q237 0 266 17 Q295 34 321 52 Q347 70 371 90 L405 47 Q380 27 352 7.5 Q324 -12 294 -30 Q263 -48 230 -63.5 Q197 -79 161 -92 L143 -40 ZM648 612 L856 612 L856 557 L648 557 L648 612 ZM293 612 L501 612 L501 557 L293 557 L293 612 ZM654 664 Q637 617 607 570 Q592 547 574.5 525.5 Q557 504 538 485 L499 524 Q533 557 561 600 Q587 639 603 682 L654 664 ZM299 664 Q291 641 278.5 617 Q266 593 252 570 Q220 523 182 485 L144 524 Q161 541 176.5 560 Q192 579 206 600 Q219 620 229.5 641 Q240 662 247 682 L299 664 ZM365 445 L308 501 L347 540 L404 483 L365 445 ZM721 445 L664 501 L702 540 L759 483 L721 445 Z" /><glyph glyph-name="cid1476" unicode="&#x70b9;" d="M273 405 L472 405 L472 669 L527 669 L527 405 L726 405 L726 129 L273 129 L273 405 ZM671 350 L328 350 L328 184 L671 184 L671 350 ZM565 576 L775 576 L775 521 L565 521 L565 576 ZM784 72 L842 -45 L793 -69 L735 48 L784 72 ZM589 72 L647 -45 L598 -69 L540 48 L589 72 ZM401 72 L459 -45 L410 -69 L352 48 L401 72 ZM263 48 L206 -69 L157 -45 L214 72 L263 48 Z" /><glyph glyph-name="cid1496" unicode="&#x8c03;" d="M362 -5 Q382 30 394.5 61.5 Q407 93 415 129 Q422 167 424.5 216 Q427 265 427 334 L427 624 L836 624 L836 -27 L743 -27 L743 28 L781 28 L781 569 L481 569 L481 334 Q481 262 478.5 211.5 Q476 161 468 119 Q460 77 446 42 Q432 7 409 -32 L362 -5 ZM534 246 L728 246 L728 59 L534 59 L534 246 ZM514 360 L604 360 L604 434 L543 434 L543 489 L604 489 L604 539 L659 539 L659 489 L720 489 L720 434 L659 434 L659 360 L748 360 L748 305 L514 305 L514 360 ZM163 425 L312 425 L312 139 L372 139 L372 84 L257 84 L257 370 L163 370 L163 425 ZM673 191 L589 191 L589 114 L673 114 L673 191 ZM252 572 L302 509 L259 476 L209 539 L252 572 Z" /><glyph glyph-name="cid1508" unicode="&#x9876;" d="M443 645 L879 645 L879 590 L687 590 L662 499 L838 499 L838 188 L783 188 L783 444 L539 444 L539 188 L484 188 L484 499 L606 499 L630 590 L443 590 L443 645 ZM688 378 Q688 292 674.5 228 Q661 164 635 113 Q609 62 571.5 22.5 Q534 -17 486 -52 L454 -7 Q498 25 531 59 Q564 93 587 138 Q610 183 621.5 241 Q633 299 634 378 L688 378 ZM308 407 L308 40 L162 40 L162 95 L253 95 L253 407 L308 407 ZM121 536 L408 536 L408 481 L121 481 L121 536 ZM720 177 L875 -9 L833 -44 L678 142 L720 177 Z" /><glyph glyph-name="cid1511" unicode="&#x5b9a;" d="M149 369 L874 369 L874 314 L538 314 L538 25 L484 25 L484 314 L149 314 L149 369 ZM869 -65 L510 -65 Q462 -65 423 -57 Q384 -49 349 -32 Q323 -18 299.5 0.5 Q276 19 253 45 Q221 -20 168 -85 L126 -50 Q158 -11 180.5 27.5 Q203 66 219 104 Q236 142 247 179.5 Q258 217 268 254 L321 241 Q312 206 302 171.5 Q292 137 278 101 Q301 71 324.5 50.5 Q348 30 374 17 Q403 3 435.5 -3.5 Q468 -10 510 -10 L869 -10 L869 -65 ZM162 432 L162 564 L860 564 L860 432 L806 432 L806 509 L217 509 L217 432 L162 432 ZM625 174 L799 174 L799 120 L625 120 L625 174 ZM514 609 L454 680 L496 715 L556 644 L514 609 Z" /><glyph glyph-name="cid1513" unicode="&#x4e22;" d="M137 246 L472 246 L472 395 L316 395 L316 450 L472 450 L472 591 L208 584 L207 639 L791 654 L793 599 L527 592 L527 450 L683 450 L683 395 L527 395 L527 246 L862 246 L862 191 L430 191 L295 1 L666 1 L666 -54 L232 -54 L232 6 L237 13 L362 191 L137 191 L137 246 ZM730 -66 L635 76 L680 106 L775 -35 L730 -66 Z" /><glyph glyph-name="cid1514" unicode="&#x4e1c;" d="M531 402 L531 297 L773 297 L773 242 L531 242 L531 -75 L396 -75 L396 -20 L476 -20 L476 242 L233 242 L233 299 L235 304 L318 503 L155 503 L155 557 L341 557 L384 660 L434 639 L400 557 L845 557 L845 503 L377 503 L292 297 L476 297 L476 402 L531 402 ZM286 115 L222 -11 L174 13 L237 139 L286 115 ZM770 139 L833 13 L785 -11 L721 115 L770 139 Z" /><glyph glyph-name="cid1518" unicode="&#x52a8;" d="M536 513 L646 513 Q648 558 649 602.5 Q650 647 650 689 L705 689 Q705 647 703.5 602.5 Q702 558 700 513 L872 513 L872 -88 L751 -88 L751 -33 L817 -33 L817 458 L697 458 Q693 412 688.5 366.5 Q684 321 676 275 Q659 168 627 66 Q595 -36 541 -125 L494 -97 Q545 -12 575 84.5 Q605 181 622 284 Q629 327 634 370.5 Q639 414 642 458 L536 458 L536 513 ZM313 244 L229 62 L399 62 L399 7 L165 7 L165 53 L167 58 L262 265 L313 244 ZM127 371 L546 371 L546 316 L127 316 L127 371 ZM225 596 L448 596 L448 541 L225 541 L225 596 ZM450 0 L390 152 L441 172 L501 20 L450 0 Z" /><glyph glyph-name="cid1525" unicode="&#x6296;" d="M98 219 L213 219 L213 467 L98 467 L98 522 L213 522 L213 689 L268 689 L268 522 L377 522 L377 467 L268 467 L268 219 L377 219 L377 164 L268 164 L268 -76 L146 -76 L146 -21 L213 -21 L213 164 L98 164 L98 219 ZM418 207 L703 207 L703 680 L758 680 L758 207 L901 207 L901 152 L758 152 L758 -82 L703 -82 L703 152 L418 152 L418 207 ZM526 385 L600 327 L567 284 L492 342 L526 385 ZM526 598 L600 540 L567 497 L492 555 L526 598 Z" /><glyph glyph-name="cid1531" unicode="&#x90fd;" d="M137 232 Q175 254 216.5 283.5 Q258 313 301 347 L177 347 L177 402 L321 402 L321 511 L233 511 L233 566 L321 566 L321 656 L376 656 L376 566 L464 566 L464 511 L376 511 L376 408 Q422 448 465 488.5 Q508 529 545 567 L585 530 Q524 465 451 402 L579 402 L579 347 L387 347 L379 340 Q341 308 304 280 L530 280 L530 -6 L260 -6 L260 247 Q235 230 211.5 214.5 Q188 199 166 185 L137 232 ZM625 -60 L625 604 L860 604 L860 552 L859 548 Q852 520 842.5 491 Q833 462 820 435 Q804 400 787 373 L862 373 L862 117 L747 117 L747 172 L807 172 L807 319 L715 319 L715 369 L721 377 Q749 411 770 458 Q790 500 803 549 L680 549 L680 -60 L625 -60 ZM475 225 L315 225 L315 49 L475 49 L475 225 ZM339 164 L451 164 L451 109 L339 109 L339 164 Z" /><glyph glyph-name="cid1535" unicode="&#x72ec;" d="M374 35 L582 35 L582 216 L425 216 L425 482 L582 482 L582 629 L637 629 L637 482 L794 482 L794 216 L637 216 L637 35 L778 35 L778 -20 L374 -20 L374 35 ZM129 168 L274 258 L274 445 L145 374 L118 422 L252 496 L191 582 L236 614 L301 523 L383 569 L410 521 L329 476 L329 -29 L214 -29 L214 26 L274 26 L274 193 L157 121 L129 168 ZM739 427 L637 427 L637 271 L739 271 L739 427 ZM480 271 L582 271 L582 427 L480 427 L480 271 ZM833 -33 L772 86 L821 111 L882 -9 L833 -33 Z" /><glyph glyph-name="cid1543" unicode="&#x5ea6;" d="M839 -86 Q783 -72 718.5 -50.5 Q654 -29 591 -3 L579 2 Q575 0 575 0 Q517 -26 450.5 -47.5 Q384 -69 307 -84 L297 -30 Q357 -18 409.5 -2.5 Q462 13 510 32 Q443 61 399 91 L429 137 Q458 118 495.5 99 Q533 80 577 61 Q619 81 654.5 102.5 Q690 124 721 146 L365 146 L365 201 L812 201 L812 147 L802 139 Q769 112 730 85.5 Q691 59 645 34 Q699 14 752.5 -3 Q806 -20 853 -33 L839 -86 ZM289 436 L432 436 L432 491 L487 491 L487 436 L676 436 L676 491 L731 491 L731 436 L874 436 L874 382 L731 382 L731 262 L432 262 L432 382 L289 382 L289 436 ZM122 -66 Q144 -33 157.5 2.5 Q171 38 179 78 Q187 118 190 162.5 Q193 207 193 256 L193 590 L877 590 L877 535 L248 535 L248 256 Q248 205 245 158.5 Q242 112 233 67 Q224 22 208.5 -18.5 Q193 -59 167 -96 L122 -66 ZM676 317 L676 382 L487 382 L487 317 L676 317 ZM548 608 L481 664 L516 706 L583 649 L548 608 Z" /><glyph glyph-name="cid1546" unicode="&#x7aef;" d="M433 -101 L433 239 L588 239 L609 318 L381 318 L381 373 L922 373 L922 318 L665 318 L645 239 L869 239 L869 -96 L774 -96 L774 -41 L814 -41 L814 185 L488 185 L488 -101 L433 -101 ZM498 647 L498 503 L805 503 L805 647 L860 647 L860 449 L443 449 L443 647 L498 647 ZM78 66 L411 66 L411 12 L78 12 L78 66 ZM103 474 L385 474 L385 419 L103 419 L103 474 ZM615 144 L615 -74 L560 -74 L560 144 L615 144 ZM742 144 L742 -74 L687 -74 L687 144 L742 144 ZM679 705 L679 534 L624 534 L624 705 L679 705 ZM165 154 L132 302 L186 313 L218 165 L165 154 ZM271 165 L303 313 L357 302 L324 154 L271 165 ZM223 621 L283 548 L241 513 L181 586 L223 621 Z" /><glyph glyph-name="cid1549" unicode="&#x6bb5;" d="M184 -60 L184 101 L88 101 L88 156 L184 156 L184 645 L208 648 L453 673 L460 619 L239 597 L239 492 L445 492 L445 437 L239 437 L239 318 L445 318 L445 263 L239 263 L239 156 L495 156 L495 101 L239 101 L239 -60 L184 -60 ZM586 211 L692 140 Q722 168 748 199 Q774 230 796 263 L532 263 L532 318 L851 318 L851 248 L847 241 Q803 171 738 109 L911 -7 L881 -53 L697 71 Q654 35 608 4.5 Q562 -26 514 -52 L489 -3 Q531 19 571.5 45.5 Q612 72 649 103 L556 166 L586 211 ZM474 377 Q500 404 514.5 432.5 Q529 461 536 491 Q543 522 544 556 Q545 590 545 627 L545 655 L814 655 L814 451 Q814 437 823 428 Q832 419 846 419 L898 419 L898 364 L846 364 Q809 364 784 389 Q773 401 766 417 Q759 433 759 451 L759 600 L600 600 Q600 568 598 538 Q596 508 589 479 Q581 442 563.5 407 Q546 372 514 339 L474 377 Z" /><glyph glyph-name="cid1555" unicode="&#x5bf9;" d="M200 372 L299 273 Q326 327 347.5 379.5 Q369 432 384 484 L149 484 L149 539 L440 539 L440 482 L439 478 Q423 418 397 356.5 Q371 295 339 233 L486 88 L448 49 L312 183 Q277 121 236.5 64 Q196 7 154 -42 L112 -7 Q155 44 196 102 Q237 160 272 223 L161 333 L200 372 ZM481 487 L737 487 L737 660 L792 660 L792 487 L888 487 L888 432 L792 432 L792 -84 L652 -84 L652 -29 L737 -29 L737 432 L481 432 L481 487 ZM610 119 L546 236 L594 262 L658 145 L610 119 Z" /><glyph glyph-name="cid1567" unicode="&#x591a;" d="M439 635 L814 635 L814 571 L807 564 Q769 522 715.5 481 Q662 440 587 404 Q513 368 416 341 Q319 314 191 300 L186 355 Q308 368 400.5 393.5 Q493 419 564 453 Q624 482 668.5 514.5 Q713 547 747 580 L439 580 L439 635 ZM439 249 L814 249 L814 185 L807 177 Q769 136 715.5 95 Q662 54 587 18 Q513 -18 416 -45 Q319 -72 191 -86 L186 -32 Q308 -19 400.5 7 Q493 33 564 67 Q624 96 668.5 128.5 Q713 161 747 194 L439 194 L439 249 ZM436 663 Q420 643 400.5 624.5 Q381 606 358 589 Q335 571 310.5 554 Q286 537 259 522 L232 570 Q258 584 281 599.5 Q304 615 325 632 Q365 663 394 698 L436 663 ZM436 277 Q420 257 400.5 238.5 Q381 220 358 203 Q335 185 310.5 168 Q286 151 259 136 L232 184 Q258 198 281 213.5 Q304 229 325 245 Q367 279 394 312 L436 277 ZM472 447 L399 504 L432 548 L506 490 L472 447 ZM472 61 L399 118 L432 161 L506 104 L472 61 Z" /><glyph glyph-name="cid1581" unicode="&#x989d;" d="M532 608 L893 608 L893 553 L739 553 L718 464 L864 464 L864 159 L809 159 L809 409 L617 409 L617 159 L562 159 L562 464 L663 464 L682 553 L532 553 L532 608 ZM181 159 L446 159 L446 -66 L181 -66 L181 159 ZM227 377 L315 325 Q363 363 397 401 L221 401 Q201 377 175 354 L140 396 Q154 408 167 422 Q180 436 191 451 Q204 467 213.5 483 Q223 499 231 515 L281 492 Q276 483 271.5 474 Q267 465 261 456 L464 456 L464 397 L459 390 Q423 343 366 295 L523 204 L496 157 L319 259 L306 250 Q262 221 214 196 Q166 171 116 155 L99 207 Q143 221 185 242.5 Q227 264 266 290 L200 329 L227 377 ZM128 484 L128 592 L499 592 L499 484 L444 484 L444 537 L183 537 L183 484 L128 484 ZM740 344 Q740 260 727 196.5 Q714 133 691 82 Q668 31 636.5 -7 Q605 -45 569 -76 L533 -34 Q565 -7 593 26.5 Q621 60 641 105 Q661 150 673 208 Q685 266 685 344 L740 344 ZM391 105 L236 105 L236 -11 L391 -11 L391 105 ZM781 126 L900 -33 L857 -66 L737 93 L781 126 ZM307 603 L260 668 L304 700 L351 636 L307 603 Z" /><glyph glyph-name="cid1591" unicode="&#x2f7d;&#x800c;" d="M209 -59 L209 433 L417 433 L446 547 L110 547 L110 601 L889 601 L889 547 L503 547 L474 433 L790 433 L790 -45 L670 -45 L670 10 L735 10 L735 378 L264 378 L264 -59 L209 -59 ZM615 312 L615 -27 L560 -27 L560 312 L615 312 ZM440 312 L440 -27 L385 -27 L385 312 L440 312 Z" /><glyph glyph-name="cid1597" unicode="&#x2f06;&#x4e8c;" d="M131 95 L868 95 L868 41 L131 41 L131 95 ZM294 553 L706 553 L706 498 L294 498 L294 553 Z" /><glyph glyph-name="cid1599" unicode="&#x53d1;" d="M154 125 Q197 174 236.5 231 Q276 288 314 357 Q328 381 340.5 406.5 Q353 432 366 460 L200 460 L200 631 L255 631 L255 515 L390 515 Q406 554 421.5 596 Q437 638 451 684 L504 668 Q490 626 476.5 588 Q463 550 449 515 L845 515 L845 460 L426 460 Q410 425 394.5 392.5 Q379 360 362 330 Q324 259 282.5 199.5 Q241 140 196 89 L154 125 ZM439 259 L561 158 Q636 233 689 305 L418 305 L418 360 L752 360 L752 300 L747 292 Q687 206 604 123 L824 -58 L790 -101 L564 85 Q514 38 457 -8 Q400 -54 335 -102 L303 -57 Q365 -12 419 31.5 Q473 75 521 120 L404 217 L439 259 ZM661 643 L718 580 L677 544 L620 607 L661 643 Z" /><glyph glyph-name="cid1605" unicode="&#x6cd5;" d="M301 332 L565 332 L565 520 L415 520 L415 575 L565 575 L565 707 L620 707 L620 575 L770 575 L770 520 L620 520 L620 332 L884 332 L884 277 L301 277 L301 332 ZM555 215 L442 -12 L706 -12 L706 -67 L380 -67 L380 -14 L383 -8 L506 239 L555 215 ZM759 -78 L695 86 L746 106 L810 -58 L759 -78 ZM264 35 L143 -34 L116 13 L237 83 L264 35 ZM239 235 L118 291 L141 341 L262 285 L239 235 ZM239 506 L118 562 L141 611 L262 556 L239 506 Z" /><glyph glyph-name="cid1617" unicode="&#x53cd;" d="M416 325 L568 190 Q613 235 650 280.5 Q687 326 718 371 L361 371 L361 426 L780 426 L780 366 L775 359 Q742 308 700.5 256.5 Q659 205 609 154 L852 -59 L816 -100 L570 116 Q519 69 464 26.5 Q409 -16 347 -54 L319 -7 Q376 28 428.5 68 Q481 108 529 152 L380 283 L416 325 ZM147 -32 Q170 4 187.5 46.5 Q205 89 216 134 Q233 198 240 255.5 Q247 313 247 347 L247 596 L272 597 L796 638 L800 583 L302 545 L302 347 Q302 311 294.5 249.5 Q287 188 269 120 Q256 72 237.5 25 Q219 -22 193 -62 L147 -32 Z" /><glyph glyph-name="cid1618" unicode="&#x8fd4;" d="M158 447 L313 447 L313 87 Q313 70 317.5 57.5 Q322 45 330 37 Q348 18 376 18 L837 18 L837 -37 L376 -37 Q353 -37 330 -28 Q307 -19 290 -1 Q284 5 278 14 Q262 -6 239.5 -23 Q217 -40 185 -56 L161 -7 Q214 19 237 49 Q258 77 258 121 L258 392 L158 392 L158 447 ZM589 357 L666 281 Q687 307 705 333.5 Q723 360 739 386 L529 386 L529 441 L801 441 L801 385 L797 378 Q779 345 755.5 311 Q732 277 706 242 L841 111 L803 72 L671 200 Q641 165 607.5 132.5 Q574 100 540 74 L506 117 Q539 143 571 173.5 Q603 204 632 238 L551 317 L589 357 ZM430 604 L455 606 L770 632 L774 577 L484 553 L484 388 Q484 353 482.5 311.5 Q481 270 473 226.5 Q465 183 447.5 140 Q430 97 397 60 L356 95 Q380 123 394.5 156 Q409 189 417 223 Q425 257 427.5 291 Q430 325 430 356 L430 604 ZM243 511 L188 593 L233 623 L288 541 L243 511 Z" /><glyph glyph-name="cid1626" unicode="&#x2f45;&#x65b9;" d="M133 -48 Q184 -2 226 53 Q268 108 299 176 Q328 238 346 310.5 Q364 383 371 470 L129 470 L129 525 L871 525 L871 470 L426 470 Q418 376 398.5 298 Q379 220 349 153 Q315 80 270 20.5 Q225 -39 169 -89 L133 -48 ZM436 308 L726 308 L726 -45 L571 -45 L571 9 L671 9 L671 253 L436 253 L436 308 ZM505 568 L438 661 L482 693 L550 600 L505 568 Z" /><glyph glyph-name="cid1629" unicode="&#x9632;" d="M143 -67 L143 615 L389 615 L389 562 L388 558 Q381 530 370.5 502 Q360 474 346 448 Q324 405 299 369 L389 369 L389 99 L263 99 L263 154 L334 154 L334 314 L227 314 L227 365 L233 373 Q251 396 267.5 421 Q284 446 298 472 Q309 494 317.5 516 Q326 538 332 560 L198 560 L198 -67 L143 -67 ZM611 329 L799 329 L799 -33 L680 -33 L680 22 L744 22 L744 274 L611 274 L611 329 ZM591 464 Q589 384 576 312.5 Q563 241 542 178 Q518 106 485 46 Q452 -14 414 -64 L371 -30 Q406 16 436.5 72 Q467 128 490 195 Q510 255 522 322.5 Q534 390 536 466 L591 464 ZM422 568 L856 568 L856 514 L422 514 L422 568 ZM624 601 L577 680 L624 708 L671 630 L624 601 Z" /><glyph glyph-name="cid1634" unicode="&#x653e;" d="M595 387 Q609 352 626.5 314.5 Q644 277 666 239 Q691 293 712 350 Q733 407 750 470 L607 470 L607 525 L895 525 L895 470 L806 470 Q786 391 759 319.5 Q732 248 700 183 Q703 177 706.5 171.5 Q710 166 714 161 Q752 101 792 48 Q832 -5 868 -42 L828 -80 Q791 -42 750 12 Q709 66 670 126 Q634 63 594.5 10.5 Q555 -42 514 -85 L474 -47 Q517 -2 558 55 Q599 112 636 181 Q608 229 584.5 276 Q561 323 544 368 L595 387 ZM269 457 Q268 428 267 402 Q266 376 264 350 L440 350 L440 -31 L323 -31 L323 23 L385 23 L385 295 L260 295 Q256 253 251 215 Q246 177 239 142 Q225 74 204.5 14 Q184 -46 152 -105 L104 -79 Q133 -24 152.5 32 Q172 88 185 153 Q198 218 204.5 293 Q211 368 214 459 L269 457 ZM120 554 L474 554 L474 499 L120 499 L120 554 ZM626 647 Q618 614 605 577 Q592 540 575 504 Q546 440 507 390 L465 425 Q482 445 497 471.5 Q512 498 526 527 Q541 561 553 595 Q565 629 573 661 L626 647 ZM258 698 L332 628 L295 588 L221 658 L258 698 Z" /><glyph glyph-name="cid1639" unicode="&#x80a5;" d="M604 302 L802 302 L802 553 L563 553 L563 97 Q563 63 581 45 Q591 34 603.5 29.5 Q616 25 630 25 L843 25 L843 131 L898 131 L898 -30 L630 -30 Q606 -30 582.5 -21 Q559 -12 542 7 Q527 23 517.5 45.5 Q508 68 508 97 L508 608 L857 608 L857 247 L604 247 L604 302 ZM259 222 L362 222 L362 352 L259 352 L259 407 L362 407 L362 536 L221 536 L221 349 Q221 280 216 225.5 Q211 171 202 124 Q193 78 180.5 39.5 Q168 1 151 -34 L101 -12 Q116 21 128 56.5 Q140 92 148 135 Q157 179 161.5 231 Q166 283 166 349 L166 591 L416 591 L416 -8 L283 -8 L283 47 L362 47 L362 167 L259 167 L259 222 ZM655 332 L655 520 L710 520 L710 332 L655 332 Z" /><glyph glyph-name="cid1651" unicode="&#x5206;" d="M239 299 L763 299 L763 -51 L596 -51 L596 3 L708 3 L708 244 L239 244 L239 299 ZM158 -51 Q187 -31 218.5 -0.5 Q250 30 279 65 Q310 103 335 143 Q360 183 377 218 L427 196 Q409 157 381.5 114 Q354 71 321 31 Q289 -8 255 -41 Q221 -74 188 -96 L158 -51 ZM449 614 Q392 534 333 469 Q301 435 269 404.5 Q237 374 202 346 L167 388 Q200 415 231.5 444.5 Q263 474 292 506 Q351 570 404 645 L449 614 ZM604 645 Q657 570 716 506 Q777 440 841 388 L807 346 Q736 403 676 469 Q615 534 560 614 L604 645 Z" /><glyph glyph-name="cid1658" unicode="&#x4efd;" d="M462 333 L802 333 L802 -71 L698 -71 L698 -16 L747 -16 L747 278 L462 278 L462 333 ZM313 386 L313 -77 L258 -77 L258 386 L313 386 ZM395 651 Q372 612 346.5 575.5 Q321 539 293 506 Q233 436 166 379 L131 421 Q163 448 193 478 Q223 508 251 541 Q303 604 347 679 L395 651 ZM580 210 Q572 165 557 123 Q542 81 519 43 Q476 -32 409 -81 L377 -36 Q406 -16 429.5 11.5 Q453 39 472 71 Q492 104 505 141.5 Q518 179 526 220 L580 210 ZM578 646 Q567 612 555 578.5 Q543 545 527 513 Q496 449 453 388 L408 419 Q449 479 477 537 Q507 598 525 661 L578 646 ZM752 661 Q762 629 773.5 598 Q785 567 800 537 Q828 479 869 419 L825 388 Q782 447 750 513 Q719 579 700 646 L752 661 Z" /><glyph glyph-name="cid1668" unicode="&#x98ce;" d="M103 -34 Q126 1 142 42.5 Q158 84 169 127 Q183 185 188.5 240 Q194 295 194 338 L194 631 L720 631 L720 603 Q720 579 721.5 527 Q723 475 726.5 410.5 Q730 346 737 275.5 Q744 205 756 144 Q761 114 769.5 83.5 Q778 53 787.5 33 Q797 13 805.5 8.5 Q814 4 820 25 Q827 49 832.5 72.5 Q838 96 843 119 L897 109 Q892 85 884 53.5 Q876 22 866 -4 Q856 -30 843 -46.5 Q830 -63 813 -63 L811 -63 L809 -62 Q789 -59 772.5 -43.5 Q756 -28 743 -1.5 Q730 25 719.5 59.5 Q709 94 702 134 Q691 190 684.5 253.5 Q678 317 674 377.5 Q670 438 668 490.5 Q666 543 665 576 L249 576 L249 338 Q249 293 243 234.5 Q237 176 222 114 Q211 67 193 21.5 Q175 -24 149 -64 L103 -34 ZM383 442 L470 305 Q514 392 545 474 L596 456 Q578 405 554.5 354 Q531 303 503 252 L611 83 L565 54 L473 199 Q448 157 420.5 114.5 Q393 72 362 30 L318 62 Q352 110 382.5 156.5 Q413 203 440 251 L337 413 L383 442 Z" /><glyph glyph-name="cid1678" unicode="&#x5426;" d="M746 -50 L290 -50 L290 228 L746 228 L746 -50 ZM174 630 L863 630 L863 575 L494 575 Q470 549 426 514.5 Q382 480 331 445 Q277 408 223 376 Q169 344 127 327 L107 378 Q145 394 196.5 424.5 Q248 455 300 490 Q332 512 361 533.5 Q390 555 413 575 L174 575 L174 630 ZM345 5 L692 5 L692 173 L345 173 L345 5 ZM546 519 L546 295 L491 295 L491 519 L546 519 ZM725 507 L893 406 L865 359 L697 460 L725 507 Z" /><glyph glyph-name="cid1699" unicode="&#x8f85;" d="M543 130 L625 130 L625 202 L543 202 L543 257 L625 257 L625 339 L517 339 L517 -36 L462 -36 L462 393 L625 393 L625 465 L420 465 L420 520 L625 520 L625 640 L680 640 L680 520 L881 520 L881 465 L680 465 L680 393 L839 393 L839 -38 L731 -38 L731 17 L784 17 L784 339 L680 339 L680 257 L762 257 L762 202 L680 202 L680 130 L762 130 L762 75 L680 75 L680 -36 L625 -36 L625 75 L543 75 L543 130 ZM297 426 L297 316 L380 316 L380 261 L297 261 L297 141 L399 141 L399 86 L297 86 L297 -48 L242 -48 L242 86 L127 86 L127 141 L242 141 L242 261 L136 261 L136 310 L137 313 L174 498 L119 498 L119 553 L185 553 L199 623 L253 612 L241 553 L396 553 L396 498 L230 498 L193 316 L242 316 L242 426 L297 426 ZM779 544 L734 597 L776 632 L821 580 L779 544 Z" /><glyph glyph-name="cid1711" unicode="&#x590d;" d="M861 -110 Q777 -94 678.5 -72.5 Q580 -51 486 -20 Q403 -52 313.5 -72.5 Q224 -93 139 -110 L129 -56 Q201 -42 270.5 -27 Q340 -12 407 8 Q377 21 349.5 34.5 Q322 48 298 63 L327 109 Q362 88 402.5 70 Q443 52 488 37 Q534 55 577 78 Q620 101 658 131 L306 131 Q273 96 237 69 L201 111 Q271 166 324 237 L274 237 L274 494 L709 494 L709 237 L393 237 Q384 223 374.5 210.5 Q365 198 355 186 L733 186 L733 129 L726 121 Q693 88 652.5 61.5 Q612 35 565 12 Q644 -10 723 -26 Q802 -42 871 -56 L861 -110 ZM654 440 L329 440 L329 292 L654 292 L654 440 ZM336 668 Q319 640 299 612 L833 612 L833 557 L256 557 Q236 532 213 509.5 Q190 487 166 465 L130 507 Q154 528 175.5 550 Q197 572 217 596 Q237 620 255 645.5 Q273 671 290 697 L336 668 ZM370 393 L614 393 L614 338 L370 338 L370 393 Z" /><glyph glyph-name="cid1726" unicode="&#x8be5;" d="M732 395 Q699 347 665 308 Q631 269 596 235 Q561 201 523.5 172 Q486 143 445 117 L415 162 Q453 188 489 215.5 Q525 243 558 275 Q563 279 566.5 283 Q570 287 575 292 L419 292 L419 348 L425 356 L546 501 L588 466 L489 347 L626 347 Q655 382 687 426 L732 395 ZM834 304 Q794 242 745 183 Q696 124 640 71 Q586 20 529.5 -21.5 Q473 -63 414 -93 L389 -45 Q444 -16 497.5 23 Q551 62 602 110 Q656 161 703 217.5 Q750 274 788 333 L834 304 ZM149 398 L302 398 L302 96 L377 96 L377 41 L247 41 L247 344 L149 344 L149 398 ZM389 584 L848 584 L848 529 L389 529 L389 584 ZM816 -72 L680 43 L715 85 L851 -30 L816 -72 ZM622 610 L561 675 L601 712 L662 648 L622 610 ZM242 563 L285 491 L238 463 L195 535 L242 563 Z" /><glyph glyph-name="cid1727" unicode="&#x6539;" d="M115 601 L407 601 L407 271 L184 271 L184 16 L371 16 L371 -39 L129 -39 L129 325 L353 325 L353 546 L115 546 L115 601 ZM552 390 Q571 344 594 301.5 Q617 259 643 220 Q672 277 694.5 337 Q717 397 731 462 L785 450 Q768 375 741 305 Q714 235 678 171 Q682 166 685 162 Q688 158 692 154 Q741 91 791 42 Q841 -7 885 -39 L854 -83 Q807 -49 753.5 2.5 Q700 54 647 120 Q603 52 550.5 -3.5 Q498 -59 438 -101 L407 -56 Q465 -16 516 39 Q567 94 609 161 Q611 165 613 167 Q581 213 552.5 263.5 Q524 314 501 369 L552 390 ZM588 662 Q582 635 574.5 607.5 Q567 580 557 552 L868 552 L868 498 L534 498 Q507 437 469 388 L426 421 Q445 445 460.5 473 Q476 501 490 532 Q505 567 516 602.5 Q527 638 534 673 L588 662 Z" /><glyph glyph-name="cid1754" unicode="&#x2fbc;&#x9ad8;" d="M213 -79 L213 230 L787 230 L787 -82 L665 -82 L665 -27 L732 -27 L732 176 L268 176 L268 -79 L213 -79 ZM636 283 L364 283 L364 478 L636 478 L636 283 ZM167 581 L832 581 L832 526 L167 526 L167 581 ZM599 -36 L401 -36 L401 124 L599 124 L599 -36 ZM419 337 L581 337 L581 423 L419 423 L419 337 ZM450 13 L549 13 L549 74 L450 74 L450 13 ZM495 607 L441 664 L481 702 L535 644 L495 607 Z" /><glyph glyph-name="cid1761" unicode="&#x544a;" d="M282 191 L717 191 L717 -99 L282 -99 L282 191 ZM103 341 L472 341 L472 484 L318 484 L318 539 L472 539 L472 672 L527 672 L527 539 L743 539 L743 484 L527 484 L527 341 L896 341 L896 287 L103 287 L103 341 ZM662 136 L337 136 L337 -44 L662 -44 L662 136 ZM317 601 Q297 551 271 507 Q258 484 242.5 462.5 Q227 441 210 420 L168 455 Q200 493 224 535 Q237 556 247.5 577 Q258 598 266 621 L317 601 Z" /><glyph glyph-name="cid1772" unicode="&#x683c;" d="M510 181 L827 181 L827 -93 L510 -93 L510 181 ZM573 472 Q613 428 667 386 Q706 423 737.5 462 Q769 501 791 539 L555 539 Q542 520 527 502.5 Q512 485 496 469 L458 508 Q490 540 516 578 Q530 598 541.5 619.5 Q553 641 561 661 L612 639 Q607 628 601.5 616 Q596 604 589 593 L847 593 L847 526 L844 520 Q821 479 787 436.5 Q753 394 711 353 L720 347 Q777 306 831 275 Q885 244 923 225 L899 176 Q859 196 803 228 Q747 260 689 302 Q684 305 679.5 308.5 Q675 312 670 315 Q619 272 563 236 Q507 200 447 177 L426 227 Q479 249 529.5 280 Q580 311 625 349 Q599 369 576 390.5 Q553 412 533 435 L573 472 ZM100 536 L242 536 L242 698 L297 698 L297 536 L430 536 L430 481 L297 481 L297 -95 L242 -95 L242 481 L100 481 L100 536 ZM772 126 L565 126 L565 -38 L772 -38 L772 126 ZM200 376 L131 72 L77 84 L147 388 L200 376 ZM383 392 L427 272 L375 253 L332 373 L383 392 Z" /><glyph glyph-name="cid1777" unicode="&#x4e2a;" d="M182 387 L481 666 L519 666 L818 387 L780 347 L500 609 L219 347 L182 387 ZM472 -70 L472 376 L527 376 L527 -70 L472 -70 Z" /><glyph glyph-name="cid1778" unicode="&#x5404;" d="M292 186 L705 186 L705 -90 L292 -90 L292 186 ZM388 661 Q369 635 351 612 L760 612 L760 551 L754 544 Q724 506 674 463.5 Q624 421 558 378 L909 217 L886 167 L502 343 L485 333 Q400 284 304 241 Q208 198 106 166 L90 218 Q184 247 273.5 286.5 Q363 326 442 371 L297 438 L320 488 L500 405 Q563 444 612.5 483 Q662 522 694 557 L302 557 Q282 536 260 517 Q238 498 215 480 L182 524 Q205 541 227 561 Q249 581 269 602 Q289 623 307.5 645.5 Q326 668 343 692 L388 661 ZM650 131 L347 131 L347 -36 L650 -36 L650 131 Z" /><glyph glyph-name="cid1779" unicode="&#x7ed9;" d="M482 223 L799 223 L799 -49 L482 -49 L482 223 ZM396 429 L207 178 L384 178 L384 123 L140 123 L140 179 L146 187 L256 334 L127 334 L127 390 L132 397 L276 609 L321 578 L193 389 L297 389 L352 462 L396 429 ZM408 406 L620 644 L661 644 L873 406 L832 370 L640 585 L449 370 L408 406 ZM744 168 L537 168 L537 5 L744 5 L744 168 ZM132 44 L392 44 L392 -11 L132 -11 L132 44 ZM520 369 L761 369 L761 314 L520 314 L520 369 Z" /><glyph glyph-name="cid1780" unicode="&#x6839;" d="M619 -83 L482 -83 L482 645 L829 645 L829 278 L537 278 L537 -29 L619 -29 L619 -83 ZM537 591 L537 333 L775 333 L775 591 L537 591 ZM100 533 L243 533 L243 701 L298 701 L298 533 L442 533 L442 478 L298 478 L298 -114 L243 -114 L243 478 L100 478 L100 533 ZM692 250 Q732 161 789.5 79.5 Q847 -2 919 -58 L887 -102 Q809 -43 747 44.5 Q685 132 642 228 L692 250 ZM201 370 L134 57 L80 69 L147 382 L201 370 ZM569 489 L742 489 L742 434 L569 434 L569 489 ZM384 388 L441 276 L392 251 L335 364 L384 388 ZM785 149 L860 218 L897 177 L822 109 L785 149 Z" /><glyph glyph-name="cid1783" unicode="&#x66f4;" d="M173 180 Q246 138 341 100 Q362 126 377.5 152 Q393 178 405 207 L227 207 L227 521 L448 521 L448 554 Q448 565 448 575 Q448 585 447 593 L125 593 L125 648 L824 648 L824 593 L502 593 L502 521 L723 521 L723 207 L466 207 Q454 173 437 141 Q420 109 397 79 Q453 59 506 43 Q603 14 698 -6 Q793 -26 874 -34 L869 -88 Q785 -80 687.5 -59.5 Q590 -39 491 -9 Q457 2 423.5 13 Q390 24 358 36 Q321 -1 271 -33.5 Q221 -66 155 -94 L134 -44 Q187 -21 228 4 Q269 29 301 58 Q259 75 220 93.5 Q181 112 147 132 L173 180 ZM668 466 L502 466 L500 395 L610 395 L610 341 L495 341 Q493 321 490 301.5 Q487 282 482 262 L668 262 L668 466 ZM340 395 L444 395 Q446 412 446.5 430 Q447 448 448 466 L282 466 L282 262 L424 262 Q435 301 439 341 L340 341 L340 395 Z" /><glyph glyph-name="cid1791" unicode="&#x529f;" d="M406 -92 Q453 -26 489.5 60 Q526 146 553 247 Q567 302 579 359.5 Q591 417 600 478 L469 478 L469 533 L607 533 Q612 578 615.5 622.5 Q619 667 621 713 L676 711 Q674 666 670.5 621.5 Q667 577 662 533 L874 533 L874 -82 L748 -82 L748 -28 L819 -28 L819 478 L655 478 Q646 413 633.5 352 Q621 291 606 233 Q578 127 539.5 36.5 Q501 -54 451 -124 L406 -92 ZM126 153 L433 153 L433 98 L126 98 L126 153 ZM307 425 L307 189 L252 189 L252 425 L307 425 ZM166 521 L392 521 L392 467 L166 467 L166 521 Z" /><glyph glyph-name="cid1803" unicode="&#x5171;" d="M71 212 L345 212 L345 457 L205 457 L205 511 L345 511 L345 670 L400 670 L400 511 L601 511 L601 670 L655 670 L655 511 L795 511 L795 457 L655 457 L655 212 L929 212 L929 157 L71 157 L71 212 ZM400 212 L601 212 L601 457 L400 457 L400 212 ZM704 -72 L633 43 L680 71 L751 -44 L704 -72 ZM250 -44 L321 71 L367 43 L297 -72 L250 -44 Z" /><glyph glyph-name="cid1805" unicode="&#x52fe;" d="M352 561 L848 561 L848 -60 L644 -60 L644 -5 L793 -5 L793 506 L352 506 L352 561 ZM436 371 L292 124 L505 124 L505 69 L231 69 L231 128 L235 134 L388 398 L436 371 ZM373 673 Q339 610 291 548 Q268 519 243.5 491 Q219 463 190 436 L152 475 Q179 501 203 527.5 Q227 554 248 581 Q270 610 289 639.5 Q308 669 325 699 L373 673 ZM562 60 L487 206 L536 231 L611 85 L562 60 Z" /><glyph glyph-name="cid1829" unicode="&#x56fa;" d="M174 640 L826 640 L826 -37 L174 -37 L174 640 ZM771 585 L228 585 L228 18 L771 18 L771 585 ZM384 286 L472 286 L472 362 L328 362 L328 417 L472 417 L472 494 L527 494 L527 417 L671 417 L671 362 L527 362 L527 286 L615 286 L615 91 L384 91 L384 286 ZM560 231 L439 231 L439 146 L560 146 L560 231 Z" /><glyph glyph-name="cid1841" unicode="&#x5173;" d="M95 280 L430 280 Q462 370 470 488 L232 488 L232 543 L768 543 L768 488 L525 488 Q517 371 488 280 L905 280 L905 225 L467 225 Q460 211 453.5 197.5 Q447 184 439 170 Q396 97 328.5 36 Q261 -25 158 -79 L132 -31 Q227 20 290 76 Q353 132 392 198 Q396 205 399.5 211.5 Q403 218 406 225 L95 225 L95 280 ZM622 179 Q658 124 718 72 Q778 21 864 -32 L835 -78 Q743 -23 682 31 Q650 59 624 88 Q598 117 577 148 L622 179 ZM713 662 L660 592 L616 624 L669 695 L713 662 ZM330 695 L383 624 L340 592 L287 662 L330 695 Z" /><glyph glyph-name="cid1848" unicode="&#x60ef;" d="M420 559 L488 559 L488 694 L840 694 L840 559 L907 559 L907 504 L840 504 L840 370 L488 370 L488 504 L420 504 L420 559 ZM294 692 L294 -92 L239 -92 L239 692 L294 692 ZM454 86 L454 314 L874 314 L874 86 L819 86 L819 259 L509 259 L509 86 L454 86 ZM699 219 Q699 100 634 20 Q602 -19 555.5 -49 Q509 -79 448 -102 L429 -51 Q483 -31 524 -5 Q565 21 592 54 Q618 86 631.5 127 Q645 168 644 219 L699 219 ZM730 55 L907 -61 L877 -107 L700 9 L730 55 ZM93 261 L147 406 L198 387 L144 242 L93 261 ZM785 639 L691 639 L691 559 L785 559 L785 639 ZM543 559 L636 559 L636 639 L543 639 L543 559 ZM785 425 L785 504 L691 504 L691 425 L785 425 ZM543 425 L636 425 L636 504 L543 504 L543 425 ZM387 399 L328 502 L375 530 L435 427 L387 399 Z" /><glyph glyph-name="cid1855" unicode="&#x89c4;" d="M135 316 L250 316 Q255 351 256.5 388.5 Q258 426 258 469 L170 469 L170 524 L259 524 Q259 547 259 572 Q259 597 260 624 L315 624 Q314 597 314 572 Q314 547 314 524 L404 524 L404 469 L313 469 Q312 427 311 389 Q310 351 306 316 L440 316 L440 261 L298 261 Q285 192 255 127.5 Q225 63 168 -9 L127 27 Q176 90 202.5 146 Q229 202 241 261 L135 261 L135 316 ZM468 278 L468 616 L812 616 L812 278 L757 278 L757 561 L523 561 L523 278 L468 278 ZM667 491 Q668 405 655.5 328 Q643 251 617 182 Q590 113 547.5 53.5 Q505 -6 445 -57 L410 -15 Q465 31 503 85 Q541 139 566 202 Q591 266 602 338 Q613 410 613 491 L667 491 ZM720 250 L720 73 Q720 56 733 43 Q744 30 763 30 L817 30 L817 102 L872 102 L872 -24 L763 -24 Q720 -24 694 4 Q680 18 672.5 35.5 Q665 53 665 73 L665 250 L720 250 ZM344 215 L436 84 L391 53 L299 183 L344 215 Z" /><glyph glyph-name="cid1871" unicode="&#x6eda;" d="M291 593 L863 593 L863 538 L291 538 L291 593 ZM553 397 L446 267 L665 267 L665 213 L380 213 L380 274 L387 282 L511 432 L553 397 ZM871 -77 Q836 -59 800.5 -35 Q765 -11 732 15 Q697 42 667.5 71 Q638 100 615 128 L657 162 Q677 137 705.5 110.5 Q734 84 766 58 Q798 33 831 11 Q864 -11 897 -28 L871 -77 ZM266 -2 Q294 15 321.5 36 Q349 57 375 82 Q398 105 420 130 Q442 155 461 184 L507 153 Q464 91 412 42 Q384 15 354.5 -7.5 Q325 -30 295 -49 L266 -2 ZM513 50 L513 -50 L582 -50 L582 -105 L458 -105 L458 50 L513 50 ZM724 200 L644 312 L689 344 L769 232 L724 200 ZM247 39 L131 -29 L103 18 L219 86 L247 39 ZM221 506 L105 561 L129 611 L244 556 L221 506 ZM221 238 L105 293 L129 342 L244 288 L221 238 ZM456 448 L359 389 L330 436 L428 495 L456 448 ZM726 495 L824 436 L796 389 L698 448 L726 495 ZM879 129 L800 68 L767 111 L845 172 L879 129 ZM578 621 L514 681 L552 721 L616 660 L578 621 Z" /><glyph glyph-name="cid1876" unicode="&#x679c;" d="M100 255 L472 255 L472 351 L277 351 L277 687 L723 687 L723 351 L527 351 L527 255 L900 255 L900 200 L527 200 L527 -99 L472 -99 L472 200 L100 200 L100 255 ZM668 632 L527 632 L527 546 L625 546 L625 491 L527 491 L527 406 L668 406 L668 632 ZM374 546 L472 546 L472 632 L332 632 L332 406 L472 406 L472 491 L374 491 L374 546 ZM109 -4 Q138 13 167 31.5 Q196 50 224 70 Q251 90 277 110 Q303 130 326 151 L362 110 Q339 88 312 67 Q285 46 256 25 Q226 4 196 -15 Q166 -34 137 -51 L109 -4 ZM863 -51 Q834 -34 803.5 -15 Q773 4 744 25 Q715 46 688 67 Q661 88 637 110 L674 151 Q697 130 722.5 110 Q748 90 775 70 Q831 30 890 -4 L863 -51 Z" /><glyph glyph-name="cid1878" unicode="&#x8fc7;" d="M153 423 L311 423 L311 84 Q311 52 329 34 Q348 15 376 15 L847 15 L847 -40 L376 -40 Q353 -40 329.5 -31 Q306 -22 289 -4 Q283 1 276 11 Q259 -9 235.5 -26 Q212 -43 180 -59 L157 -9 Q210 16 234 46 Q256 75 256 118 L256 368 L153 368 L153 423 ZM389 507 L686 507 L686 642 L741 642 L741 507 L846 507 L846 453 L741 453 L741 63 L597 63 L597 118 L686 118 L686 453 L389 453 L389 507 ZM490 344 L575 250 L534 214 L449 308 L490 344 ZM250 511 L194 593 L239 624 L295 542 L250 511 Z" /><glyph glyph-name="cid1908" unicode="&#x822a;" d="M83 277 L165 277 Q166 291 166 307 Q166 323 166 340 L166 559 L418 559 L418 -65 L290 -65 L290 -10 L363 -10 L363 223 L217 223 Q215 179 210 144.5 Q205 110 197 81 Q186 33 169 -2 Q152 -37 129 -73 L83 -44 Q103 -11 118 20.5 Q133 52 144 94 Q158 145 162 223 L83 223 L83 277 ZM453 -47 Q482 -21 499.5 5.5 Q517 32 527 62 Q538 93 541.5 129 Q545 165 545 209 L545 376 L768 376 L768 22 Q768 12 776 4 Q783 -3 793 -3 L861 -3 L861 84 L916 84 L916 -58 L793 -58 Q760 -58 737 -35 Q713 -11 713 22 L713 321 L600 321 L600 209 Q600 161 595.5 121 Q591 81 579 45 Q567 8 545.5 -24.5 Q524 -57 490 -88 L453 -47 ZM363 505 L221 505 L221 340 Q221 323 221 307 Q221 291 220 277 L363 277 L363 505 ZM451 518 L875 518 L875 463 L451 463 L451 518 ZM645 560 L592 631 L636 664 L689 593 L645 560 ZM239 620 L292 682 L334 646 L280 584 L239 620 ZM292 67 L246 122 L289 157 L334 102 L292 67 ZM292 343 L246 398 L289 433 L334 378 L292 343 Z" /><glyph glyph-name="cid1914" unicode="&#x597d;" d="M117 -38 Q157 -6 195.5 35 Q234 76 269 127 L160 207 L145 218 L150 236 L210 455 L108 455 L108 510 L225 510 L266 656 L319 642 L282 510 L503 510 L503 455 L267 455 L208 240 L299 173 Q330 226 354.5 287.5 Q379 349 395 421 L448 409 Q431 331 404 264.5 Q377 198 343 141 L465 52 L433 8 L313 95 Q276 41 235 -2.5 Q194 -46 151 -81 L117 -38 ZM480 286 L655 286 L655 349 L659 355 L781 572 L522 572 L522 627 L847 627 L847 577 L843 571 L710 335 L710 286 L891 286 L891 231 L710 231 L711 -66 L711 -93 L580 -93 L580 -38 L656 -38 L655 231 L480 231 L480 286 Z" /><glyph glyph-name="cid1916" unicode="&#x53f7;" d="M556 -22 L688 -22 L688 121 L288 121 L288 309 L91 309 L91 364 L908 364 L908 309 L343 309 L343 176 L743 176 L743 -77 L556 -77 L556 -22 ZM700 443 L304 443 L304 678 L700 678 L700 443 ZM359 498 L645 498 L645 623 L359 623 L359 498 Z" /><glyph glyph-name="cid1924" unicode="&#x548c;" d="M583 562 L863 562 L863 -22 L583 -22 L583 562 ZM808 507 L637 507 L637 33 L808 33 L808 507 ZM142 421 L316 421 L316 560 L370 560 L370 421 L544 421 L544 367 L370 367 L370 -94 L316 -94 L316 367 L142 367 L142 421 ZM276 268 L188 -8 L136 8 L224 284 L276 268 ZM214 644 L469 658 L472 603 L217 589 L214 644 ZM465 276 L505 171 L454 151 L414 256 L465 276 Z" /><glyph glyph-name="cid1926" unicode="&#x5408;" d="M728 -71 L270 -71 L270 239 L728 239 L728 -71 ZM325 -16 L673 -16 L673 184 L325 184 L325 -16 ZM125 365 L481 684 L518 684 L874 365 L837 324 L499 626 L162 324 L125 365 ZM359 413 L640 413 L640 358 L359 358 L359 413 Z" /><glyph glyph-name="cid1939" unicode="&#x5f88;" d="M574 -83 L434 -83 L434 647 L804 647 L804 279 L489 279 L489 -28 L574 -28 L574 -83 ZM489 593 L489 334 L749 334 L749 593 L489 593 ZM654 249 Q673 201 701 157 Q729 113 763 75 Q801 33 841.5 0.5 Q882 -32 920 -52 L895 -101 Q852 -79 807.5 -43.5 Q763 -8 723 39 Q686 81 655 128.5 Q624 176 603 229 L654 249 ZM261 293 L261 -101 L206 -101 L206 293 L261 293 ZM359 657 Q336 630 307.5 605.5 Q279 581 247 559 Q178 514 100 482 L80 533 Q115 547 149.5 565 Q184 583 216 605 Q245 625 271 646.5 Q297 668 318 693 L359 657 ZM359 451 Q333 425 305 402 Q277 379 245 359 Q211 336 174.5 318 Q138 300 100 284 L80 335 Q151 363 216 405 Q275 443 319 489 L359 451 ZM530 491 L708 491 L708 436 L530 436 L530 491 ZM758 138 L852 226 L889 186 L796 98 L758 138 Z" /><glyph glyph-name="cid1944" unicode="&#x6a2a;" d="M473 328 L627 328 L627 380 L378 380 L378 435 L539 435 L539 533 L463 533 L463 588 L539 588 L539 678 L594 678 L594 588 L716 588 L716 678 L770 678 L770 588 L846 588 L846 533 L770 533 L770 435 L931 435 L931 380 L682 380 L682 328 L836 328 L836 49 L473 49 L473 328 ZM85 517 L215 517 L215 685 L270 685 L270 517 L400 517 L400 462 L270 462 L270 -89 L215 -89 L215 462 L85 462 L85 517 ZM180 373 L121 69 L68 79 L126 384 L180 373 ZM781 274 L682 274 L682 216 L752 216 L752 161 L682 161 L682 104 L781 104 L781 274 ZM557 216 L627 216 L627 274 L528 274 L528 104 L627 104 L627 161 L557 161 L557 216 ZM594 435 L716 435 L716 533 L594 533 L594 435 ZM355 386 L403 214 L350 199 L302 371 L355 386 ZM556 -23 L480 -99 L441 -61 L517 16 L556 -23 ZM792 16 L868 -61 L829 -99 L753 -23 L792 16 Z" /><glyph glyph-name="cid1961" unicode="&#x5019;" d="M441 176 L634 176 Q640 199 643.5 224.5 Q647 250 647 279 L702 279 Q702 250 699 224.5 Q696 199 691 176 L906 176 L906 121 L673 121 Q653 70 620 33 Q584 -9 541 -35 Q498 -61 456 -77 L436 -26 Q473 -12 510.5 10.5 Q548 33 578 69 Q597 91 612 121 L441 121 L441 176 ZM441 499 L723 499 L723 609 L541 609 L541 664 L778 664 L778 499 L906 499 L906 444 L441 444 L441 499 ZM271 434 L271 -102 L216 -102 L216 434 L271 434 ZM347 674 Q304 588 249 518 Q222 483 191.5 452.5 Q161 422 127 396 L94 439 Q125 463 152.5 491.5 Q180 520 206 552 Q258 617 298 699 L347 674 ZM573 366 L839 366 L839 312 L573 312 L573 366 ZM393 392 L393 156 L339 156 L339 392 L393 392 ZM853 -69 L708 28 L739 73 L884 -24 L853 -69 ZM568 405 Q557 362 533 323 Q521 303 507 285.5 Q493 268 476 254 L440 294 Q453 306 464.5 320 Q476 334 486 351 Q505 384 515 419 L568 405 Z" /><glyph glyph-name="cid1962" unicode="&#x540e;" d="M382 255 L804 255 L804 -53 L382 -53 L382 255 ZM118 -34 Q148 11 164.5 67 Q181 123 189 180 Q197 237 199 288 Q201 339 201 371 L201 629 L226 631 L769 674 L773 619 L255 578 L256 371 Q256 339 254 286 Q252 233 243 172 Q235 110 216 48.5 Q197 -13 163 -64 L118 -34 ZM749 200 L437 200 L437 2 L749 2 L749 200 ZM304 448 L882 448 L882 393 L304 393 L304 448 Z" /><glyph glyph-name="cid1972" unicode="&#x7cca;" d="M782 210 L856 210 L856 379 L782 379 L782 434 L856 434 L856 591 L753 591 L753 440 Q753 336 750.5 262.5 Q748 189 740 131 Q732 73 720 25 Q708 -23 689 -76 L638 -58 Q655 -7 667 38.5 Q679 84 686 138 Q693 194 695.5 265.5 Q698 337 698 440 L698 646 L911 646 L911 -47 L796 -47 L796 8 L856 8 L856 155 L782 155 L782 210 ZM115 375 L231 375 L231 642 L286 642 L286 375 L402 375 L402 320 L286 320 L286 -52 L231 -52 L231 320 L115 320 L115 375 ZM430 273 L638 273 L638 44 L430 44 L430 273 ZM395 483 L506 483 L506 615 L561 615 L561 483 L673 483 L673 428 L561 428 L561 305 L506 305 L506 428 L395 428 L395 483 ZM208 230 L141 -4 L88 11 L155 245 L208 230 ZM583 218 L485 218 L485 99 L583 99 L583 218 ZM363 245 L395 125 L342 111 L310 231 L363 245 ZM147 459 L115 551 L167 569 L198 477 L147 459 ZM319 477 L350 569 L402 551 L370 459 L319 477 Z" /><glyph glyph-name="cid1978" unicode="&#x4e92;" d="M113 21 L617 21 L617 363 L422 363 L422 418 L671 418 L671 21 L887 21 L887 -33 L113 -33 L113 21 ZM578 148 L328 148 L328 570 L240 570 L240 625 L759 625 L759 570 L383 570 L383 203 L578 203 L578 148 Z" /><glyph glyph-name="cid1980" unicode="&#x6237;" d="M150 -67 Q175 -32 192.5 10 Q210 52 220.5 96 Q231 140 236 185 Q241 230 241 271 L241 560 L850 560 L850 284 L296 284 L296 271 Q296 226 290.5 177 Q285 128 273 79.5 Q261 31 242 -14.5 Q223 -60 195 -98 L150 -67 ZM296 506 L296 339 L795 339 L795 506 L296 506 ZM549 596 L467 670 L504 711 L586 636 L549 596 Z" /><glyph glyph-name="cid1985" unicode="&#x6ed1;" d="M286 309 L286 447 L410 447 L410 683 L758 683 L758 447 L882 447 L882 309 L827 309 L827 392 L341 392 L341 309 L286 309 ZM410 -83 L410 307 L758 307 L758 -78 L639 -78 L639 -23 L703 -23 L703 252 L465 252 L465 -83 L410 -83 ZM703 629 L465 629 L465 577 L614 577 L614 447 L703 447 L703 629 ZM515 75 L653 75 L653 20 L515 20 L515 75 ZM515 190 L653 190 L653 135 L515 135 L515 190 ZM259 28 L147 -44 L118 2 L230 74 L259 28 ZM559 522 L465 522 L465 447 L559 447 L559 522 ZM232 235 L120 293 L145 341 L257 284 L232 235 ZM232 516 L120 573 L145 622 L257 564 L232 516 Z" /><glyph glyph-name="cid1986" unicode="&#x753b;" d="M310 463 L699 463 L699 86 L310 86 L310 463 ZM644 408 L365 408 L365 141 L644 141 L644 408 ZM222 279 L222 -15 L777 -15 L777 279 L832 279 L832 -70 L167 -70 L167 279 L222 279 ZM177 622 L821 622 L821 567 L177 567 L177 622 ZM397 302 L472 302 L472 386 L527 386 L527 302 L602 302 L602 247 L527 247 L527 164 L472 164 L472 247 L397 247 L397 302 Z" /><glyph glyph-name="cid1988" unicode="&#x5316;" d="M387 236 L523 326 L523 642 L578 642 L578 363 L861 551 L891 505 L578 297 L578 48 Q578 18 594 2 Q602 -7 613.5 -11 Q625 -15 636 -15 L852 -15 L852 68 L906 68 L906 -70 L636 -70 Q613 -70 592 -61.5 Q571 -53 554 -36 Q540 -21 531.5 0 Q523 21 523 48 L523 260 L417 190 L387 236 ZM309 395 L309 -90 L254 -90 L254 395 L309 395 ZM376 656 Q351 608 323.5 567 Q296 526 265 489 Q234 452 200 419.5 Q166 387 128 356 L93 398 Q129 427 161.5 458 Q194 489 223 524 Q282 593 327 681 L376 656 Z" /><glyph glyph-name="cid1989" unicode="&#x8bdd;" d="M783 -81 L452 -81 L452 189 L590 189 L590 357 L352 357 L352 412 L590 412 L590 557 L645 557 L645 412 L883 412 L883 357 L645 357 L645 189 L783 189 L783 -81 ZM507 -26 L728 -26 L728 134 L507 134 L507 -26 ZM117 411 L285 411 L285 69 L372 69 L372 14 L230 14 L230 357 L117 357 L117 411 ZM457 638 L774 666 L779 611 L461 583 L457 638 ZM218 581 L266 508 L220 478 L172 551 L218 581 Z" /><glyph glyph-name="cid1998" unicode="&#x8fd8;" d="M301 451 L301 84 Q301 52 319 34 Q328 24 340.5 19.5 Q353 15 366 15 L837 15 L837 -40 L366 -40 Q343 -40 320 -31 Q297 -22 279 -4 Q274 1 270 6 Q266 11 263 17 Q232 -19 171 -49 L147 1 Q200 26 224 56 Q246 85 246 128 L246 396 L143 396 L143 451 L301 451 ZM380 607 L820 607 L820 552 L611 552 Q594 510 571 465.5 Q548 421 519 379 Q490 336 456 298 Q422 260 386 231 L351 273 Q384 300 415 335 Q446 370 473 410 Q521 479 552 552 L380 552 L380 607 ZM627 384 L627 61 L572 61 L572 384 L627 384 ZM712 451 L857 269 L814 235 L669 417 L712 451 ZM243 512 L187 594 L232 625 L288 543 L243 512 Z" /><glyph glyph-name="cid2000" unicode="&#x6362;" d="M365 -64 Q437 -27 483.5 18.5 Q530 64 558 118 L573 151 L358 151 L358 206 L448 206 L448 461 L681 461 L733 575 L579 575 L579 630 L798 630 L798 585 L796 579 L741 461 L824 461 L824 206 L913 206 L913 151 L631 151 Q626 136 620 121.5 Q614 107 607 93 Q575 31 523 -20 Q471 -71 390 -113 L365 -64 ZM86 203 L187 203 L187 442 L86 442 L86 497 L187 497 L187 647 L242 647 L242 497 L336 497 L336 442 L242 442 L242 203 L336 203 L336 148 L242 148 L242 -78 L104 -78 L104 -23 L187 -23 L187 148 L86 148 L86 203 ZM769 406 L503 406 L503 206 L590 206 Q600 244 604 284.5 Q608 325 608 370 L663 370 Q663 326 659 285 Q655 244 646 206 L769 206 L769 406 ZM875 -113 Q833 -93 801 -69 Q769 -45 743 -17 Q717 10 697.5 38.5 Q678 67 662 96 L710 122 Q724 96 742 70.5 Q760 45 783 20 Q806 -3 834 -24.5 Q862 -46 899 -63 L875 -113 ZM562 679 Q546 632 521 584 Q510 563 497 543 Q484 523 470 506 L428 540 Q452 570 472 610 Q494 652 510 697 L562 679 Z" /><glyph glyph-name="cid2023" unicode="&#x7070;" d="M139 78 Q191 138 228.5 207 Q266 276 292 355 Q316 426 331 503 L197 503 L197 558 L341 558 Q347 595 351.5 632.5 Q356 670 360 710 L415 705 Q407 628 397 558 L861 558 L861 503 L387 503 Q378 459 367.5 418 Q357 377 344 338 Q316 253 276 179 Q236 105 181 42 L139 78 ZM616 425 Q616 333 599 256 Q582 179 549 113 Q517 47 469.5 -8.5 Q422 -64 362 -113 L327 -70 Q384 -25 427 26 Q470 77 500 137 Q530 198 545.5 269 Q561 340 561 425 L616 425 ZM657 169 Q679 98 720 40 Q760 -20 819 -71 L782 -112 Q751 -84 724.5 -54 Q698 -24 675 9 Q652 42 634.5 78 Q617 114 605 153 L657 169 ZM422 199 L367 308 L416 333 L471 224 L422 199 ZM704 224 L758 333 L807 308 L753 199 L704 224 Z" /><glyph glyph-name="cid2029" unicode="&#x56de;" d="M174 640 L826 640 L826 -37 L174 -37 L174 640 ZM771 585 L229 585 L229 18 L771 18 L771 585 ZM371 434 L629 434 L629 168 L371 168 L371 434 ZM574 380 L426 380 L426 223 L574 223 L574 380 Z" /><glyph glyph-name="cid2038" unicode="&#x4f1a;" d="M161 416 L482 698 L518 698 L839 416 L803 375 L500 641 L197 375 L161 416 ZM149 239 L851 239 L851 184 L149 184 L149 239 ZM430 115 L334 -16 L609 -16 L609 -71 L270 -71 L270 -10 L276 -3 L386 147 L430 115 ZM364 425 L636 425 L636 370 L364 370 L364 425 ZM687 -82 L617 30 L664 59 L734 -53 L687 -82 Z" /><glyph glyph-name="cid2051" unicode="&#x6d3b;" d="M770 -75 L401 -75 L401 196 L770 196 L770 -75 ZM286 430 L558 430 L558 597 L429 587 L425 641 L742 666 L746 611 L613 601 L613 430 L885 430 L885 375 L613 375 L613 232 L558 232 L558 375 L286 375 L286 430 ZM456 -20 L715 -20 L715 141 L456 141 L456 -20 ZM255 48 L143 -20 L115 27 L227 95 L255 48 ZM229 509 L117 564 L141 613 L253 559 L229 509 ZM229 244 L117 298 L141 348 L253 293 L229 244 Z" /><glyph glyph-name="cid2055" unicode="&#x6216;" d="M871 335 L701 115 Q726 33 750.5 -11.5 Q775 -56 797 -57 Q803 -57 814 -39 Q822 -24 828.5 -1.5 Q835 21 843 53 L896 40 Q880 -30 862 -64 Q838 -112 797 -112 Q759 -111 724.5 -66 Q690 -21 660 62 L567 -59 L524 -25 L640 126 Q639 127 639 130 Q619 198 601.5 282 Q584 366 570 466 L104 466 L104 521 L563 521 Q558 563 553 606 Q548 649 544 694 L598 699 Q603 652 607.5 607.5 Q612 563 618 521 L885 521 L885 466 L625 466 Q637 384 651 312 Q665 240 682 180 L827 369 L871 335 ZM179 358 L454 358 L454 105 L179 105 L179 358 ZM400 303 L234 303 L234 160 L400 160 L400 303 ZM123 -15 L496 -15 L496 -70 L123 -70 L123 -15 ZM752 550 L683 642 L727 675 L796 583 L752 550 Z" /><glyph glyph-name="cid2060" unicode="&#x51fb;" d="M527 705 L527 574 L758 574 L758 519 L527 519 L527 348 L909 348 L909 294 L527 294 L527 48 L472 48 L472 294 L90 294 L90 348 L472 348 L472 519 L241 519 L241 574 L472 574 L472 705 L527 705 ZM789 186 L789 -58 L210 -58 L210 186 L265 186 L265 -3 L734 -3 L734 186 L789 186 Z" /><glyph glyph-name="cid2062" unicode="&#x57fa;" d="M800 72 L633 213 L634 214 L359 214 L360 213 L193 72 L158 114 L276 214 L89 214 L89 269 L321 269 L321 562 L211 562 L211 617 L321 617 L321 713 L376 713 L376 617 L624 617 L624 713 L679 713 L679 617 L789 617 L789 562 L679 562 L679 269 L911 269 L911 214 L716 214 L835 114 L800 72 ZM376 269 L624 269 L624 562 L376 562 L376 269 ZM172 -50 L469 -50 L469 45 L355 45 L355 100 L469 100 L469 174 L524 174 L524 100 L639 100 L639 45 L524 45 L524 -50 L822 -50 L822 -105 L172 -105 L172 -50 ZM419 499 L581 499 L581 444 L419 444 L419 499 ZM419 388 L581 388 L581 333 L419 333 L419 388 Z" /><glyph glyph-name="cid2080" unicode="&#x8f91;" d="M444 90 L520 90 L520 387 L461 387 L461 441 L831 441 L831 387 L772 387 L772 90 L849 90 L849 35 L772 35 L772 -38 L717 -38 L717 35 L444 35 L444 90 ZM329 449 L329 339 L412 339 L412 284 L329 284 L329 164 L431 164 L431 109 L329 109 L329 -25 L274 -25 L274 109 L159 109 L159 164 L274 164 L274 284 L168 284 L168 333 L169 336 L206 521 L151 521 L151 576 L217 576 L231 646 L285 635 L273 576 L425 576 L425 521 L262 521 L225 339 L274 339 L274 449 L329 449 ZM522 664 L771 664 L771 489 L522 489 L522 664 ZM575 323 L717 323 L717 387 L575 387 L575 323 ZM575 90 L717 90 L717 154 L575 154 L575 90 ZM716 609 L577 609 L577 544 L716 544 L716 609 ZM575 209 L717 209 L717 268 L575 268 L575 209 Z" /><glyph glyph-name="cid2083" unicode="&#x53ca;" d="M449 323 Q486 278 530.5 234.5 Q575 191 626 151 Q674 199 712.5 250 Q751 301 782 354 L587 354 L587 409 L591 416 L710 601 L249 601 L249 656 L767 656 L767 589 L763 582 L652 409 L841 409 L841 348 L837 342 Q804 283 763 226.5 Q722 170 670 117 Q725 76 783 39.5 Q841 3 898 -28 L872 -76 Q812 -43 750.5 -4.5 Q689 34 630 79 Q578 32 517.5 -7.5 Q457 -47 385 -79 L363 -29 Q428 0 483 35.5 Q538 71 586 113 Q535 154 490 198 Q445 242 407 289 L449 323 ZM102 -22 Q150 35 195.5 107 Q241 179 279 260 Q314 335 339 411.5 Q364 488 376 563 L430 554 Q418 476 391.5 395.5 Q365 315 328 237 Q289 153 242 77.5 Q195 2 144 -58 L102 -22 Z" /><glyph glyph-name="cid2089" unicode="&#x7ea7;" d="M595 297 Q616 259 640.5 225 Q665 191 691 159 Q742 237 781 332 L641 332 L641 385 L645 391 L745 563 L433 563 L433 618 L806 618 L806 559 L802 552 L705 386 L839 386 L839 329 L837 323 Q792 212 730 118 Q730 117 729 117 Q801 43 882 -12 L850 -57 Q810 -28 771.5 3.5 Q733 35 696 72 Q670 38 639.5 5.5 Q609 -27 574 -61 L537 -22 Q608 46 659 113 Q628 148 600 187 Q572 226 547 270 L595 297 ZM398 457 L197 196 L376 196 L376 141 L130 141 L130 198 L135 206 L249 354 L122 354 L122 410 L127 417 L269 622 L314 591 L188 409 L292 409 L355 490 L398 457 ZM391 -17 Q417 33 435 93 Q453 153 465 222 Q477 292 483.5 367 Q490 442 493 521 L548 519 Q545 438 538.5 361 Q532 284 519 213 Q506 140 487 76 Q468 12 440 -42 L391 -17 ZM118 63 L381 63 L381 8 L118 8 L118 63 Z" /><glyph glyph-name="cid2105" unicode="&#x8ba1;" d="M411 375 L604 375 L604 665 L659 665 L659 375 L852 375 L852 321 L659 321 L659 -73 L604 -73 L604 321 L411 321 L411 375 ZM148 443 L313 443 L313 54 L397 54 L397 -1 L258 -1 L258 388 L148 388 L148 443 ZM239 598 L292 532 L250 498 L197 564 L239 598 Z" /><glyph glyph-name="cid2118" unicode="&#x52a0;" d="M597 550 L884 550 L884 4 L597 4 L597 550 ZM146 548 L259 548 Q261 596 262.5 641 Q264 686 264 729 L319 729 Q319 686 317.5 641 Q316 596 314 548 L488 548 L488 -37 L368 -37 L368 18 L433 18 L433 493 L311 493 Q305 415 294.5 335 Q284 255 266.5 177.5 Q249 100 223.5 28.5 Q198 -43 162 -105 L115 -77 Q149 -18 173 50.5 Q197 119 214 192.5 Q231 266 241 342 Q251 418 256 493 L146 493 L146 548 ZM829 495 L652 495 L652 59 L829 59 L829 495 Z" /><glyph glyph-name="cid2135" unicode="&#x95f4;" d="M354 424 L647 424 L647 51 L354 51 L354 424 ZM415 626 L815 626 L815 -56 L680 -56 L680 -1 L760 -1 L760 571 L415 571 L415 626 ZM592 369 L409 369 L409 106 L592 106 L592 369 ZM240 444 L240 -57 L185 -57 L185 444 L240 444 ZM434 265 L567 265 L567 210 L434 210 L434 265 ZM272 538 L204 634 L249 665 L317 569 L272 538 Z" /><glyph glyph-name="cid2152" unicode="&#x51cf;" d="M709 716 Q711 681 712.5 638 Q714 595 717 546 L863 546 L863 491 L720 491 Q724 425 729.5 357 Q735 289 743 223 Q743 216 743.5 210 Q744 204 745 198 L826 352 L876 326 L760 107 Q768 69 777.5 38 Q787 7 795.5 -14.5 Q804 -36 811 -45.5 Q818 -55 821 -49 Q830 -30 835 -7.5 Q840 15 844 34 L898 24 Q893 3 886 -24 Q879 -51 871 -74 Q862 -97 850 -111.5 Q838 -126 822 -126 L818 -126 Q788 -121 763.5 -78.5 Q739 -36 721 33 L685 -35 L636 -12 L703 117 Q699 140 695.5 165.5 Q692 191 689 217 Q681 284 675.5 354 Q670 424 666 491 L346 491 L346 268 Q346 168 321.5 67 Q297 -34 246 -119 L199 -90 Q246 -12 268.5 81.5 Q291 175 291 268 L291 546 L662 546 L655 713 L709 716 ZM403 229 L619 229 L619 -21 L403 -21 L403 229 ZM564 174 L458 174 L458 34 L564 34 L564 174 ZM383 387 L638 387 L638 332 L383 332 L383 387 ZM232 158 L139 60 L101 100 L194 197 L232 158 ZM194 383 L101 471 L139 511 L232 422 L194 383 ZM797 591 L744 657 L786 691 L839 626 L797 591 Z" /><glyph glyph-name="cid2158" unicode="&#x89c1;" d="M244 234 L244 627 L733 627 L733 234 L678 234 L678 572 L299 572 L299 234 L244 234 ZM131 -4 Q233 23 297.5 68.5 Q362 114 399.5 176 Q437 238 450.5 315.5 Q464 393 464 484 L519 484 Q520 385 506 301 Q492 217 451.5 148.5 Q411 80 337.5 28 Q264 -24 146 -57 L131 -4 ZM586 244 L586 71 Q586 46 604 30 Q619 13 644 13 L814 13 L814 100 L869 100 L869 -42 L644 -42 Q621 -42 600.5 -33 Q580 -24 565 -9 Q532 22 532 71 L532 244 L586 244 Z" /><glyph glyph-name="cid2159" unicode="&#x952e;" d="M559 150 L702 150 L702 213 L614 213 L614 268 L702 268 L702 327 L607 327 L607 382 L702 382 L702 432 L570 432 L570 487 L702 487 L702 538 L611 538 L611 593 L702 593 L702 637 L757 637 L757 593 L871 593 L871 487 L905 487 L905 432 L871 432 L871 327 L757 327 L757 268 L845 268 L845 213 L757 213 L757 150 L900 150 L900 95 L757 95 L757 48 L702 48 L702 95 L559 95 L559 150 ZM901 -41 L651 -41 Q598 -41 559.5 -25.5 Q521 -10 489 19 Q484 23 480.5 26 Q477 29 473 34 Q461 12 448.5 -7.5 Q436 -27 423 -45 L378 -13 Q392 7 406.5 30.5 Q421 54 435 79 Q421 98 408 119 Q395 140 381 163 L428 191 Q437 176 445.5 162 Q454 148 462 135 Q479 171 492.5 206 Q506 241 516 271 L432 270 L404 270 L404 323 L408 329 Q422 353 435.5 377.5 Q449 402 462 428 Q473 451 484 474.5 Q495 498 505 523 L396 523 L396 578 L565 578 L565 525 L563 520 Q551 490 538 461 Q525 432 511 404 Q500 383 490 363.5 Q480 344 469 325 L547 327 L574 327 L574 275 L573 272 Q563 235 546.5 192 Q530 149 509 104 L500 85 Q506 78 512 71.5 Q518 65 525 60 Q550 38 580 26 Q610 14 651 14 L901 14 L901 -41 ZM124 211 L215 211 L215 326 L141 326 L141 381 L348 381 L348 326 L270 326 L270 211 L365 211 L365 157 L270 157 L270 41 L349 41 L349 -14 L215 -14 L215 157 L124 157 L124 211 ZM215 578 Q210 557 202 532.5 Q194 508 184 485 Q173 462 161.5 441 Q150 420 138 404 L95 437 Q116 465 134 507 Q143 528 150 549.5 Q157 571 161 589 L215 578 ZM217 523 L370 523 L370 468 L217 468 L217 523 ZM816 538 L757 538 L757 487 L816 487 L816 538 ZM816 382 L816 432 L757 432 L757 382 L816 382 Z" /><glyph glyph-name="cid2161" unicode="&#x4ef6;" d="M357 234 L588 234 L588 477 L507 477 L507 531 L588 531 L588 707 L643 707 L643 531 L811 531 L811 477 L643 477 L643 234 L883 234 L883 179 L643 179 L643 -102 L588 -102 L588 179 L357 179 L357 234 ZM294 413 L294 -87 L239 -87 L239 413 L294 413 ZM375 671 Q352 631 327 595.5 Q302 560 274 528 Q246 495 215.5 465.5 Q185 436 152 409 L117 451 Q180 503 232 563 Q259 594 282.5 627 Q306 660 328 698 L375 671 ZM495 601 Q490 575 483 547 Q476 519 466 492 Q456 463 444.5 437.5 Q433 412 422 391 L374 418 Q396 457 414 510 Q423 535 430 560.5 Q437 586 441 611 L495 601 Z" /><glyph glyph-name="cid2166" unicode="&#x6e10;" d="M449 471 L449 335 L559 335 L559 280 L449 280 L449 142 L571 142 L571 87 L449 87 L449 -86 L394 -86 L394 87 L243 87 L243 142 L394 142 L394 280 L274 280 L274 333 L275 337 L324 553 L253 553 L253 608 L337 608 L356 691 L409 678 L393 608 L571 608 L571 553 L380 553 L331 335 L394 335 L394 471 L449 471 ZM556 -41 Q574 1 585 47.5 Q596 94 603 143 Q609 194 611 243.5 Q613 293 613 341 L613 627 L636 631 L850 668 L859 614 L668 581 L668 404 L898 404 L898 349 L668 349 L668 341 Q668 292 666 240 Q664 188 657 137 Q650 84 638 33.5 Q626 -17 606 -63 L556 -41 ZM819 297 L819 -95 L764 -95 L764 297 L819 297 ZM223 63 L133 -3 L101 41 L191 107 L223 63 ZM193 509 L103 562 L131 609 L221 557 L193 509 ZM193 252 L103 305 L131 352 L221 300 L193 252 Z" /></font>
</defs>
</svg>
